<svg width="167" height="28" viewBox="0 0 167 28" fill="none" xmlns="http://www.w3.org/2000/svg">
<g clip-path="url(#clip0_211_110)">
<path d="M43.6992 5.43665H46.0916L52.9267 22.7688H50.0461L48.2153 18.0574H41.5266L39.7201 22.7688H36.8151L43.6992 5.43665ZM47.6783 16.0313L44.8953 8.58576L42.0148 16.0313H47.6783Z" fill="#00C854"/>
<path d="M53.5613 16.373C53.5563 15.5052 53.7136 14.6442 54.0251 13.8342C54.3255 13.045 54.7834 12.3253 55.371 11.7188C55.9586 11.1124 56.6635 10.6319 57.4428 10.3068C58.3086 9.94664 59.2392 9.76801 60.1769 9.7819C61.3704 9.74961 62.5494 10.0496 63.5823 10.6485C64.5035 11.1933 65.2459 11.995 65.7183 12.9554L63.1063 13.7854C62.811 13.2627 62.3811 12.8286 61.8612 12.5282C61.3342 12.2256 60.7357 12.0696 60.1281 12.0766C59.6106 12.0726 59.0983 12.1808 58.6267 12.3939C58.1661 12.6033 57.7545 12.9068 57.4183 13.2849C57.0677 13.6824 56.7945 14.1419 56.6128 14.6398C56.4115 15.1951 56.3123 15.7823 56.3198 16.373C56.3141 16.9606 56.4176 17.5442 56.625 18.094C56.8148 18.6007 57.0961 19.0682 57.4549 19.4732C57.7961 19.8573 58.2113 20.1687 58.6755 20.3886C59.1369 20.6078 59.6417 20.7205 60.1525 20.7182C60.4825 20.7176 60.811 20.6725 61.1289 20.5839C61.7369 20.4206 62.2894 20.0959 62.7279 19.6441C62.9213 19.4477 63.0747 19.2156 63.1795 18.9606L65.8159 19.7418C65.3693 20.7282 64.6272 21.5514 63.6921 22.0975C62.6295 22.7265 61.4113 23.0437 60.1769 23.0129C59.2461 23.0252 58.323 22.8422 57.4672 22.4758C56.6808 22.1371 55.9709 21.6431 55.3801 21.0233C54.8015 20.4119 54.3457 19.6951 54.0374 18.9118C53.718 18.1037 53.5564 17.2419 53.5613 16.373Z" fill="#00C854"/>
<path d="M67.0853 16.373C67.0803 15.5052 67.2376 14.6442 67.5491 13.8342C67.8495 13.0451 68.3074 12.3253 68.895 11.7189C69.4825 11.1124 70.1874 10.6319 70.9667 10.3068C71.8326 9.94664 72.7631 9.76801 73.7008 9.7819C74.8943 9.74961 76.0733 10.0496 77.1062 10.6485C78.0275 11.1933 78.7698 11.995 79.2422 12.9554L76.6303 13.7854C76.335 13.2627 75.9051 12.8286 75.3852 12.5282C74.8582 12.2256 74.2598 12.0696 73.6521 12.0766C73.1346 12.0726 72.6223 12.1808 72.1507 12.3939C71.6901 12.6033 71.2785 12.9068 70.9424 13.2849C70.5917 13.6824 70.3185 14.1419 70.1368 14.6398C69.9355 15.1951 69.8363 15.7823 69.8438 16.373C69.8382 16.9606 69.9416 17.5442 70.149 18.094C70.3388 18.6007 70.6201 19.0683 70.979 19.4732C71.3201 19.8573 71.7353 20.1687 72.1995 20.3886C72.6609 20.6078 73.1657 20.7205 73.6765 20.7182C74.0065 20.7176 74.335 20.6725 74.6529 20.5839C75.2609 20.4206 75.8134 20.0959 76.2519 19.6441C76.4453 19.4477 76.5987 19.2156 76.7035 18.9606L79.3399 19.7418C78.8933 20.7282 78.1512 21.5514 77.2161 22.0975C76.1535 22.7265 74.9353 23.0437 73.7009 23.0129C72.7701 23.0252 71.847 22.8422 70.9912 22.4758C70.2048 22.1371 69.4949 21.6431 68.9041 21.0233C68.3255 20.4119 67.8697 19.6951 67.5614 18.9118C67.242 18.1037 67.0804 17.2419 67.0853 16.373Z" fill="#00C854"/>
<path d="M87.2249 23.0129C86.2952 23.0253 85.373 22.8466 84.5152 22.4881C83.7301 22.1581 83.02 21.6723 82.4281 21.06C81.8479 20.4545 81.3918 19.7413 81.0854 18.9606C80.766 18.1526 80.6044 17.2908 80.6094 16.4218C80.6052 15.549 80.7668 14.6834 81.0854 13.8708C81.3916 13.0828 81.8475 12.3616 82.4281 11.747C83.0174 11.1286 83.7279 10.6383 84.5152 10.3067C85.3811 9.94663 86.3116 9.768 87.2493 9.78188C88.1763 9.76875 89.0955 9.95177 89.9468 10.3189C90.7211 10.6555 91.4219 11.1407 92.0095 11.747C92.5804 12.3435 93.0246 13.0494 93.3156 13.8221C93.6169 14.6132 93.7699 15.4531 93.7671 16.2998C93.7671 16.4951 93.759 16.6781 93.7427 16.849C93.7265 17.0199 93.7102 17.1623 93.6939 17.2762H83.4655C83.5045 17.8092 83.6411 18.3305 83.8683 18.8141C84.0788 19.2574 84.3683 19.6587 84.7227 19.9981C85.423 20.6664 86.3545 21.0381 87.3225 21.0356C87.6807 21.0356 88.0375 20.9905 88.3844 20.9013C88.7224 20.8168 89.047 20.6853 89.3486 20.5108C89.6381 20.3426 89.9013 20.1328 90.1298 19.8883C90.3525 19.6516 90.534 19.3793 90.6669 19.0827L92.9616 19.7418C92.4934 20.7334 91.7303 21.5562 90.7767 22.0975C89.6995 22.7236 88.4705 23.0404 87.2249 23.0129ZM91.1063 15.4209C91.063 14.9043 90.9265 14.3998 90.7035 13.9319C90.4981 13.4958 90.2124 13.1024 89.8613 12.7722C89.513 12.451 89.1071 12.1984 88.6651 12.0277C88.2063 11.8482 87.7176 11.7571 87.2249 11.7592C86.2573 11.7538 85.3238 12.1159 84.6128 12.7722C84.263 13.1008 83.981 13.4947 83.7828 13.9319C83.5674 14.4019 83.4353 14.9057 83.3922 15.4209H91.1063Z" fill="#00C854"/>
<path d="M95.9883 4.94843H98.6735V19.0827C98.65 19.486 98.7809 19.8832 99.0397 20.1934C99.1713 20.3307 99.3311 20.4378 99.5082 20.5073C99.6852 20.5768 99.8752 20.6072 100.065 20.5962C100.276 20.5914 100.485 20.5586 100.687 20.4985C100.923 20.4337 101.147 20.3605 101.359 20.2788L101.749 22.3782C101.304 22.5745 100.837 22.7179 100.358 22.8054C99.884 22.9044 99.4017 22.9575 98.9176 22.9641C97.99 22.9641 97.2699 22.7119 96.7572 22.2074C96.2446 21.7031 95.9883 20.987 95.9883 20.0591V4.94843Z" fill="#00C854"/>
<path d="M109.097 23.0129C108.167 23.0253 107.245 22.8466 106.387 22.4881C105.602 22.1581 104.892 21.6723 104.3 21.06C103.72 20.4545 103.264 19.7413 102.958 18.9606C102.638 18.1526 102.477 17.2907 102.482 16.4218C102.477 15.549 102.639 14.6834 102.958 13.8708C103.264 13.0828 103.72 12.3616 104.3 11.747C104.89 11.1286 105.6 10.6383 106.387 10.3067C107.253 9.94663 108.184 9.768 109.121 9.78188C110.048 9.76875 110.968 9.95177 111.819 10.3189C112.593 10.6555 113.294 11.1407 113.882 11.747C114.453 12.3435 114.897 13.0494 115.188 13.8221C115.489 14.6133 115.642 15.4532 115.639 16.2998C115.639 16.4951 115.631 16.6782 115.615 16.8491C115.599 17.0199 115.582 17.1623 115.566 17.2763H105.338C105.377 17.8092 105.513 18.3305 105.74 18.8142C105.951 19.2575 106.24 19.6587 106.595 19.9982C107.295 20.6665 108.227 21.0382 109.195 21.0356C109.553 21.0357 109.91 20.9906 110.257 20.9014C110.595 20.8168 110.919 20.6853 111.221 20.5108C111.51 20.3426 111.773 20.1329 112.002 19.8883C112.225 19.6516 112.406 19.3794 112.539 19.0828L114.834 19.7419C114.366 20.7335 113.603 21.5562 112.649 22.0976C111.572 22.7237 110.343 23.0404 109.097 23.0129ZM112.978 15.4209C112.935 14.9043 112.799 14.3998 112.576 13.9319C112.37 13.4958 112.085 13.1024 111.733 12.7722C111.385 12.451 110.979 12.1984 110.537 12.0277C110.078 11.8482 109.59 11.7571 109.097 11.7592C108.129 11.7538 107.196 12.1159 106.485 12.7722C106.135 13.1008 105.853 13.4947 105.655 13.9319C105.44 14.4019 105.307 14.9057 105.264 15.4209H112.978Z" fill="#00C854"/>
<path d="M125.013 12.3207C124.045 12.3341 123.094 12.5811 122.242 13.0408C121.463 13.4594 120.854 14.1373 120.521 14.9571V22.7688H117.836V10.0016H120.326V12.8577C120.725 12.0281 121.315 11.3045 122.047 10.7462C122.705 10.2364 123.499 9.9346 124.329 9.87955H124.732C124.826 9.87865 124.92 9.88684 125.013 9.904L125.013 12.3207Z" fill="#00C854"/>
<path d="M127.163 22.7688V5.43665H129.897V20.3521H139.198V22.7688L127.163 22.7688Z" fill="#00C854"/>
<path d="M141.078 7.90219V4.94843H143.763V7.90219H141.078ZM141.078 22.7688V10.0016H143.763V22.7688H141.078Z" fill="#00C854"/>
<path d="M151.623 23.013C150.582 23.0102 149.548 22.8413 148.56 22.5125C147.601 22.211 146.709 21.726 145.935 21.0845L147.009 19.3756C147.708 19.8926 148.471 20.3153 149.28 20.6329C150.012 20.9147 150.79 21.0595 151.574 21.0601C152.372 21.0601 153.002 20.9054 153.466 20.5962C153.688 20.4568 153.868 20.2616 153.991 20.0302C154.113 19.7988 154.172 19.5394 154.162 19.278C154.169 19.0259 154.097 18.7779 153.957 18.5681C153.818 18.3583 153.616 18.197 153.381 18.1062C152.591 17.7712 151.774 17.5018 150.94 17.3006C150.142 17.0893 149.459 16.8859 148.889 16.6904C148.394 16.5324 147.925 16.3021 147.498 16.0069C147.165 15.7766 146.896 15.4659 146.716 15.1037C146.543 14.712 146.46 14.2866 146.472 13.8586C146.461 13.2592 146.59 12.6655 146.851 12.1254C147.1 11.6248 147.459 11.1867 147.9 10.8438C148.371 10.4826 148.905 10.2134 149.475 10.0504C150.11 9.86692 150.767 9.77647 151.428 9.7819C152.341 9.77423 153.25 9.92286 154.113 10.2213C154.925 10.5043 155.678 10.9346 156.335 11.4908L155.187 13.1019C153.999 12.1583 152.738 11.6864 151.403 11.6861C150.801 11.6654 150.205 11.8133 149.682 12.1132C149.219 12.3982 148.987 12.8498 148.987 13.4681C148.979 13.6966 149.03 13.9233 149.133 14.1272C149.247 14.3222 149.411 14.4826 149.609 14.591C149.879 14.7425 150.166 14.8613 150.464 14.9449C150.813 15.051 151.249 15.1689 151.77 15.2988C152.632 15.5105 153.377 15.7221 154.003 15.9335C154.552 16.1077 155.074 16.3583 155.553 16.678C155.932 16.9321 156.243 17.2759 156.457 17.6789C156.662 18.1089 156.763 18.5817 156.75 19.0581C156.75 20.2787 156.29 21.2429 155.37 21.9509C154.451 22.6589 153.202 23.0129 151.623 23.013Z" fill="#00C854"/>
<path d="M166.157 22.1097C165.696 22.3194 165.223 22.5028 164.741 22.659C164.119 22.8655 163.468 22.9686 162.813 22.9641C162.408 22.9667 162.004 22.9091 161.616 22.7932C161.257 22.6875 160.921 22.5134 160.628 22.2806C160.335 22.0426 160.105 21.7367 159.956 21.3896C159.783 20.9681 159.7 20.5148 159.712 20.0591V12.0766H158.028V10.0016H159.712V5.80283H162.398V10.0016H165.181V12.0766H162.398V19.2048C162.43 19.6606 162.572 19.9901 162.825 20.1934C163.093 20.4023 163.425 20.5103 163.765 20.4986C164.132 20.5 164.496 20.4338 164.839 20.3033C165.18 20.1732 165.433 20.0674 165.596 19.986L166.157 22.1097Z" fill="#00C854"/>
<path d="M28.0025 6.14191H7.94839C7.70884 6.14191 7.4791 6.23707 7.30972 6.40646C7.14033 6.57584 7.04517 6.80558 7.04517 7.04514V27.0968C7.04517 27.2154 7.06853 27.3328 7.11392 27.4424C7.15931 27.552 7.22584 27.6516 7.30972 27.7354C7.39359 27.8193 7.49316 27.8858 7.60274 27.9312C7.71233 27.9766 7.82978 28 7.94839 28H12.1612C13.24 28.0021 14.276 27.5781 15.0436 26.8202C15.0533 26.8107 27.7185 14.1454 27.7231 14.1409C28.482 13.3737 28.9064 12.3373 28.9032 11.2581L28.9057 7.04565C28.9058 6.92699 28.8825 6.80949 28.8371 6.69984C28.7917 6.59019 28.7252 6.49056 28.6413 6.40663C28.5575 6.3227 28.4579 6.25613 28.3482 6.2107C28.2386 6.16528 28.1211 6.1419 28.0025 6.14191ZM15.0164 21.3161H10.8164C10.6254 21.3151 10.4425 21.2385 10.3078 21.1031C10.1731 20.9677 10.0975 20.7845 10.0975 20.5935C10.0975 20.4025 10.1731 20.2193 10.3078 20.0839C10.4425 19.9485 10.6254 19.8719 10.8164 19.8709H15.0164C15.2074 19.8719 15.3903 19.9485 15.525 20.0839C15.6597 20.2193 15.7353 20.4025 15.7353 20.5935C15.7353 20.7845 15.6597 20.9677 15.525 21.1031C15.3903 21.2385 15.2074 21.3151 15.0164 21.3161ZM15.0164 17.7032H10.8164C10.6254 17.7022 10.4425 17.6256 10.3078 17.4902C10.1731 17.3548 10.0975 17.1716 10.0975 16.9806C10.0975 16.7896 10.1731 16.6064 10.3078 16.471C10.4425 16.3356 10.6254 16.259 10.8164 16.258H15.0164C15.2074 16.259 15.3903 16.3356 15.525 16.471C15.6597 16.6064 15.7353 16.7896 15.7353 16.9806C15.7353 17.1716 15.6597 17.3548 15.525 17.4902C15.3903 17.6256 15.2074 17.7022 15.0164 17.7032ZM10.0938 13.3677C10.0938 13.1761 10.1699 12.9923 10.3054 12.8568C10.4409 12.7213 10.6247 12.6451 10.8164 12.6451H13.1346C13.3263 12.6451 13.5101 12.7213 13.6456 12.8568C13.7811 12.9923 13.8572 13.1761 13.8572 13.3677C13.8572 13.5594 13.7811 13.7431 13.6456 13.8786C13.5101 14.0142 13.3263 14.0903 13.1346 14.0903H10.8164C10.6247 14.0903 10.4409 14.0142 10.3054 13.8786C10.1699 13.7431 10.0938 13.5594 10.0938 13.3677ZM24.4249 14.0903H16.4615C16.2699 14.0903 16.0861 14.0142 15.9506 13.8786C15.8151 13.7431 15.739 13.5594 15.739 13.3677C15.739 13.1761 15.8151 12.9923 15.9506 12.8568C16.0861 12.7213 16.2699 12.6451 16.4615 12.6451H24.4249C24.6166 12.6451 24.8004 12.7213 24.9359 12.8568C25.0714 12.9923 25.1475 13.1761 25.1475 13.3677C25.1475 13.5594 25.0714 13.7431 24.9359 13.8786C24.8004 14.0142 24.6166 14.0903 24.4249 14.0903ZM24.4249 10.4774H10.8164C10.6254 10.4764 10.4425 10.3998 10.3078 10.2644C10.1731 10.129 10.0975 9.94581 10.0975 9.75481C10.0975 9.56381 10.1731 9.38058 10.3078 9.24518C10.4425 9.10978 10.6254 9.03321 10.8164 9.03223H24.4249C24.5202 9.03174 24.6145 9.05007 24.7026 9.08616C24.7907 9.12225 24.8708 9.1754 24.9383 9.24254C25.0058 9.30969 25.0594 9.38951 25.0959 9.47743C25.1325 9.56534 25.1513 9.6596 25.1513 9.75481C25.1513 9.85002 25.1325 9.94428 25.0959 10.0322C25.0594 10.1201 25.0058 10.1999 24.9383 10.2671C24.8708 10.3342 24.7907 10.3874 24.7026 10.4235C24.6145 10.4596 24.5202 10.4779 24.4249 10.4774Z" fill="#00C854"/>
<path d="M27.2469 4.01738L20.1081 0.166022C19.9061 0.057064 19.6802 1.32372e-05 19.4507 0L1.39266 0C1.31606 1.3694e-06 1.24145 0.0243457 1.17959 0.069518C1.11774 0.11469 1.07184 0.178353 1.04852 0.251313C1.0252 0.324274 1.02568 0.402757 1.04987 0.47543C1.07407 0.548104 1.12074 0.611207 1.18314 0.655628L6.76636 4.62982C6.82753 4.67337 6.90076 4.69677 6.97586 4.69676H27.0753C27.1558 4.69673 27.2339 4.66988 27.2973 4.62045C27.3608 4.57102 27.4059 4.50185 27.4256 4.42387C27.4453 4.34589 27.4384 4.26358 27.406 4.18995C27.3737 4.11633 27.3177 4.0556 27.2469 4.01738Z" fill="#00943E"/>
<path d="M1.99608e-09 1.38807V21.9128C-9.25781e-07 22.181 0.0597124 22.4458 0.174806 22.6881C0.289899 22.9303 0.457484 23.1439 0.665397 23.3133L5.01048 26.8535C5.06345 26.8966 5.12758 26.9239 5.19541 26.9321C5.26325 26.9402 5.33202 26.929 5.39373 26.8997C5.45545 26.8704 5.50758 26.8241 5.54409 26.7664C5.58059 26.7086 5.59997 26.6417 5.59997 26.5734V6.12579C5.59996 6.07746 5.59026 6.02962 5.57143 5.98511C5.5526 5.9406 5.52503 5.90031 5.49035 5.86665L0.613031 1.12887C0.562092 1.07939 0.497702 1.04602 0.427905 1.03293C0.358109 1.01983 0.286002 1.0276 0.220595 1.05526C0.155187 1.08291 0.09938 1.12923 0.0601463 1.18842C0.0209127 1.24761 -7.46106e-06 1.31705 1.99608e-09 1.38807Z" fill="#00943E"/>
<path d="M17.9329 16.5431C17.8672 16.522 17.797 16.5195 17.7299 16.5357C17.6629 16.552 17.6016 16.5864 17.5528 16.6351C17.504 16.6839 17.4696 16.7452 17.4534 16.8123C17.4372 16.8793 17.4397 16.9495 17.4607 17.0152C17.9961 18.7073 18.0565 20.5139 17.6353 22.2379C17.214 23.962 16.3274 25.5372 15.0721 26.7918L27.7095 14.1545C26.4549 15.4098 24.8797 16.2964 23.1556 16.7176C21.4316 17.1388 19.625 17.0784 17.9329 16.5431Z" fill="#00943E"/>
</g>
<defs>
<clipPath id="clip0_211_110">
<rect width="166.157" height="28" fill="white"/>
</clipPath>
</defs>
</svg>
