<svg version="1.1" id="svg8" xmlns="http://www.w3.org/2000/svg" x="0" y="0" viewBox="0 0 778.3 230.3" xml:space="preserve">
  <style>
    .st1{fill:#233d9e}
  </style>
  <g id="layer1" transform="translate(0 -230)">
    <g id="g4647" transform="translate(-1.0583333 1.0583333)">
      <path class="st1" d="M250.5 399.6v-14.1c-10.7 11.8-21.8 16.7-37 16.7-31.7 0-56.2-24.9-56.2-57.1 0-32.6 24.6-58.1 56-58.1 14.1 0 27.1 5.1 34.9 13.5v-45.9h26.9v145h-24.6zm-33.3-88.7c-18.4 0-32.7 14.5-32.7 33 0 19.2 14.5 34.3 33.3 34.3 18.2 0 32.5-14.7 32.5-33.6 0-19-14.3-33.7-33.1-33.7zM380.6 399.6v-14.1c-10.7 11.8-21.4 16.7-37.2 16.7-32.7 0-56.4-23.7-56.4-56.5 0-33.2 23.8-57.3 57-57.3 16.2 0 27.3 5.1 36.6 17.1V291h24.6v108.7h-24.6zm-33.7-87.3c-19.2 0-32.7 14.1-32.7 34 0 19 13.5 32 33.1 32 20.4 0 32.5-14.1 32.5-32.2 0-19.9-13.8-33.8-32.9-33.8zM421.6 399.6v-145h26.9v145h-26.9zM505.6 435.9h-28.9l21-46.5-41-98.5h30.7l24.8 70.5 27.1-70.5h30.9l-64.6 145zM608.8 402.1c-22.2 0-38.2-11.8-41-37.1h27.1c2.6 9.2 7.1 13.2 14.9 13.2 6.9 0 12.1-4.5 12.1-10.6 0-6.3-1-8-19-13.9-22.2-7.3-31.1-16.3-31.1-32.2 0-18.6 16.4-33.2 37.2-33.2 19 0 35.8 12.2 36.8 32.6h-26.3c-1.2-5.7-4.8-8.6-10.5-8.6-5.9 0-10.3 3.9-10.3 9.2 0 5.7.6 6.1 19 11.8 23.4 7.1 31.1 15.7 31.1 31.8 0 20.7-17.5 37-40 37zM660.2 399.6V290.9H687v108.7h-26.8zm.2-124.4v-26.1h26.9v26.1h-26.9zM738.9 402.1c-22.2 0-38.2-11.8-41-37.1H725c2.6 9.2 7.1 13.2 14.9 13.2 6.9 0 12.1-4.5 12.1-10.6 0-6.3-1-8-19-13.9-22.2-7.3-31.1-16.3-31.1-32.2 0-18.6 16.4-33.2 37.2-33.2 19 0 35.8 12.2 36.8 32.6h-26.3c-1.2-5.7-4.8-8.6-10.5-8.6-5.9 0-10.3 3.9-10.3 9.2 0 5.7.6 6.1 19 11.8 23.4 7.1 31.1 15.7 31.1 31.8 0 20.7-17.5 37-40 37z"/>
      <path id="path53" class="st1" d="M74.2 258.1l-18 43.7 21.3 13 7.1-19.7 19.5 51.6c-30.4-28.7-71.2-53.3-103-65v22c56.9 32.4 94 68.7 124.4 96.3h29L95 258.1H74.2z"/>
      <path id="path53-8" d="M41.6 337.2l-26.5 62.2h29L62 353.6l-20.4-16.4z" fill="#8493a6"/>
    </g>
  </g>
</svg>
