<?xml version="1.0" encoding="UTF-8"?>
<svg id="Layer_1" xmlns="http://www.w3.org/2000/svg" viewBox="0 0 230.29 135.62">
  <defs>
    <style>
      .cls-1 {
        fill: #f8f7f4;
      }
    </style>
  </defs>
  <path class="cls-1" d="M7.17,118.05h4.69l6.15,17.57h-4.98l-1.17-4.03h-6l-1.54,4.03H0s7.17-17.57,7.17-17.57ZM10.83,128.15l-1.61-5.56h-.15l-2.05,5.56h3.81Z"/>
  <path class="cls-1" d="M45.7,118.05h4.69v14.13h7.32v3.44h-12.01s0-17.57,0-17.57Z"/>
  <path class="cls-1" d="M86.01,118.05h12.37v3.44h-7.76v3.59h6.3v3.29h-6.3v3.81h7.98v3.44h-12.59s0-17.57,0-17.57Z"/>
  <path class="cls-1" d="M131.84,121.49h-6v-3.44h16.69v3.44h-6.08v14.13h-4.61v-14.13Z"/>
  <path class="cls-1" d="M169,118.05h4.69v6.88h7.91v-6.88h4.61v17.57h-4.61v-7.25h-7.91v7.25h-4.69s0-17.57,0-17.57Z"/>
  <path class="cls-1" d="M219.45,118.05h4.69l6.15,17.57h-4.98l-1.17-4.03h-6l-1.54,4.03h-4.32s7.17-17.57,7.17-17.57ZM223.11,128.15l-1.61-5.56h-.15l-2.05,5.56h3.81Z"/>
  <g>
    <path class="cls-1" d="M107.22,42.56c-.6-.03-1.18-.04-1.75-.04-3.98,0-7.23.71-9.64,1.87-2.63,1.27-4.19,3.11-4.29,5.06-.02.45-.09,1.64,1.86,2.25,3.08.96,9.38-.44,13.13-6.51.33-.54.69-1.2,1.08-1.96.15-.3-.05-.65-.39-.66h0Z"/>
    <path class="cls-1" d="M115.14,0c-21.57,0-39.06,17.49-39.06,39.06s17.49,39.06,39.06,39.06,39.06-17.49,39.06-39.06S136.72,0,115.14,0ZM132.55,41.31c-.31,0-.62-.02-.93-.06-4.49-.61-7.93-5.24-10.58-14.4-.1-.35-.6-.37-.73-.03-1.38,3.67-2.98,7.89-4.57,11.75-.09.22.04.46.27.52l.08.02c9.15,2.05,17.41,7.9,26.18,16.6.33.33-.09.85-.48.6-10.81-6.98-20.3-10.75-28.06-12.31-.18-.04-.35.06-.43.22-.81,1.75-1.58,3.25-2.26,4.36-3.88,6.26-10.32,9.29-15.65,9.29-1.27,0-2.48-.17-3.57-.51-3.62-1.13-5.75-4.04-5.57-7.58.2-3.94,2.86-7.42,7.28-9.55,4.29-2.07,9.98-2.79,16.39-2.13.16.02.32-.07.38-.23,2.1-5.02,4.35-11.02,5.94-15.29.74-1.99,1.38-3.7,1.86-4.92.27-.68.46-1.16.62-1.51.66-1.48,1.64-2.17,2.93-2.06,1.19.11,2.17,1,2.39,2.19,3.33,18.16,7.51,19.52,8.28,19.73,1.86.5,4.32.16,11.12-4.67.33-.24.76.14.56.5-1.72,3.05-5.99,9.48-11.45,9.48h0Z"/>
  </g>
</svg>