<?xml version="1.0" encoding="UTF-8"?>
<svg width="762px" height="213px" viewBox="0 0 762 213" version="1.1" xmlns="http://www.w3.org/2000/svg" xmlns:xlink="http://www.w3.org/1999/xlink">
    <!-- Generator: Sketch 53.2 (72643) - https://sketchapp.com -->
    <title>DarkBlue/RobotoBold48pt</title>
    <desc>Created with Sketch.</desc>
    <g id="DarkBlue/RobotoBold48pt" stroke="none" stroke-width="1" fill="none" fill-rule="evenodd">
        <g id="Tick" transform="translate(623.000000, 0.000000)">
            <path d="M98.2478384,157 L13.7521616,157 C6.15677536,157 0,150.817218 0,143.188745 L0,56.8102525 C0,49.1827824 6.15677536,43 13.7521616,43 L98.2478384,43 C105.843225,43 112,49.1827824 112,56.8102525 L112,143.188745 C112,150.817218 105.843225,157 98.2478384,157" id="Fill-1" fill="#2A3077"></path>
            <polyline id="Fill-2" fill="#2A3077" points="138.099 4.25 132.35 0.697 51.327 124.67 69.129 139.927 138.099 4.25"></polyline>
            <polyline id="Fill-4" fill="#FFFFFE" points="57.662 144.449 28.589 70.796 56.693 95.993 132.283 0.374 57.662 144.449"></polyline>
        </g>
        <g id="Clear" transform="translate(188.000000, 42.000000)" fill="#2A3077" fill-rule="nonzero">
            <path d="M398.550804,29 C400.613911,29 401.378535,29.028313 402.196114,29.1918266 L403,29.3526017 L403,46.7851314 L401.909465,46.6859932 C399.568085,46.4731432 397.650178,46.3452844 396.482881,46.3452844 C381.586763,46.3452844 371.965208,57.6645656 371.965208,74.4831872 L371.965208,116 L356,116 L356,30.0354429 L371.965208,30.0354429 L371.965208,42.8470988 C378.433833,34.0024094 387.891206,29 398.550804,29 Z" id="r"></path>
            <path d="M316.574089,72.6026874 C316.574089,55.7398784 304.975554,42.9263987 289.516381,42.9263987 C273.740708,42.9263987 262.11442,55.0557873 262.11442,72.6026874 C262.11442,89.3161944 273.206675,101.24594 289.344254,101.24594 C304.565387,101.24594 316.574089,89.1726683 316.574089,72.6026874 Z M316.056712,29.0350284 L332,29.0350284 L332,114.965968 L316.574089,114.965968 L316.574089,103.320727 C309.568671,111.443908 299.539981,116 288.139365,116 C263.746066,116 246,98.2318157 246,72.6026874 C246,47.0846014 263.797178,28 287.967238,28 C298.977111,28 308.904018,32.2934794 316.056712,40.1129525 L316.056712,29.0350284 Z" id="a"></path>
            <path d="M216.03815,63.8474458 C213.520494,50.8177134 204.994732,42.9263987 192.790817,42.9263987 C180.334149,42.9263987 170.647186,50.9468596 167.847274,63.8474458 L216.03815,63.8474458 Z M194.167689,101.24594 C203.619514,101.24594 211.484813,97.2009523 216.96228,90.2525088 L217.608709,89.432481 L228.930843,99.1796853 L228.34757,99.9306085 C220.403697,110.157793 208.415526,116 193.651362,116 C168.987652,116 151,97.7801159 151,72.0866674 C151,46.5347825 168.513527,28 192.102381,28 C215.76426,28 232,45.6985117 232,70.7079578 C232,71.195455 231.984496,71.7325145 231.955326,72.3192944 C231.925178,72.925758 231.88189,73.5618102 231.824715,74.2774561 C231.805516,74.5177651 231.785693,74.7557918 231.761072,75.0442504 C231.731417,75.3897905 231.716271,75.5661241 231.706024,75.6875495 C231.67141,76.0976991 231.655782,76.3201283 231.655782,76.3951349 L231.655782,77.3951349 L167.258285,77.3951349 C169.469194,91.9498553 179.906186,101.24594 194.167689,101.24594 Z" id="e"></path>
            <polygon id="l" points="117 116 117 0 132 0 132 116"></polygon>
            <path d="M0.996056734,59.6204986 L0,59.6204986 C0,25.8601616 21.6308422,2 55.758218,2 C72.4430538,2 88.0107306,9.2492463 99.3862514,23.4708113 L100,24.2381138 L88.4075553,33.8953094 L87.7745731,33.0960232 C79.5574162,22.7199668 68.0609498,16.8763471 55.758218,16.8763471 C31.7121324,16.8763471 16.0696488,34.0702379 16.0696488,59.6204986 C16.0696488,84.5955659 32.4222568,101.124654 55.758218,101.124654 C68.6886702,101.124654 79.485521,95.365816 87.779257,85.0532323 L88.4191753,84.2575461 L99.9958852,94.0802279 L99.3850707,94.8409113 C88.5224625,108.36876 73.8996064,116 55.758218,116 C23.3418741,116 0,94.1357754 0,59.6204986 L0.996056734,59.6204986 Z" id="C"></path>
        </g>
        <g id="All" transform="translate(0.000000, 42.000000)" fill="#2A3077" fill-rule="nonzero">
            <polygon id="l" points="153 116 153 0 168 0 168 116"></polygon>
            <polygon id="l" points="114 116 114 0 129 0 129 116"></polygon>
            <path d="M49.9236757,23.9196326 L31.2167408,75.4225352 L68.7746899,75.4225352 L49.9236757,23.9196326 Z M73.8425023,89.1971831 L26.1536579,89.1971831 L16.3973734,116 L0,116 L42.4152006,4 L57.2694448,4 L100,116 L83.5977878,116 L73.8425023,89.1971831 Z" id="A"></path>
        </g>
        <path d="M599.31568,45.6703297 L594.68432,45.6703297 L594.68432,59 L591.569055,59 L591.569055,45.6703297 L587,45.6703297 L587,43 L599.31568,43 L599.31568,45.6703297 Z M605.161994,43 L609.045691,54.6043956 L612.908619,43 L617,43 L617,59 L613.874351,59 L613.874351,54.6263736 L614.185877,47.0769231 L610.104881,59 L607.965732,59 L603.895119,47.0879121 L604.206646,54.6263736 L604.206646,59 L601.091381,59 L601.091381,43 L605.161994,43 Z" id="TM" fill="#2A3077" fill-rule="nonzero"></path>
        <path d="M28.8028018,184.153075 L18.347448,184.153075 L18.347448,212.532086 L11.3146988,212.532086 L11.3146988,184.153075 L1,184.153075 L1,178.467914 L28.8028018,178.467914 L28.8028018,184.153075 Z M64.3510043,200.062166 L58.7482475,200.062166 L58.7482475,212.532086 L51.7154983,212.532086 L51.7154983,178.467914 L64.3978893,178.467914 C66.3670689,178.467914 68.1330528,178.690172 69.6958937,179.134693 C71.2587347,179.579213 72.5793155,180.234287 73.6576758,181.099933 C74.736036,181.965579 75.5643293,183.037872 76.1425805,184.316845 C76.7208316,185.595817 77.0099529,187.077532 77.0099529,188.762032 C77.0099529,190.00981 76.8692993,191.128894 76.5879879,192.119318 C76.3066766,193.109742 75.900344,193.990972 75.3689781,194.763035 C74.8376121,195.535097 74.196857,196.209667 73.4466933,196.786765 C72.6965296,197.363862 71.8526082,197.862966 70.9149036,198.284091 L78.2992902,212.204545 L78.2992902,212.532086 L70.7508061,212.532086 L64.3510043,200.062166 Z M58.7482475,194.377005 L64.4213318,194.377005 C65.343408,194.377005 66.1521661,194.256129 66.8476303,194.014372 C67.5430945,193.772615 68.121337,193.429481 68.5823751,192.98496 C69.0434132,192.540439 69.3911401,192.010141 69.6255662,191.394051 C69.8599924,190.77796 69.9772037,190.087793 69.9772037,189.323529 C69.9772037,187.717015 69.5200796,186.453659 68.6058176,185.533422 C67.6915556,184.613186 66.2889269,184.153075 64.3978893,184.153075 L58.7482475,184.153075 L58.7482475,194.377005 Z M120.528604,205.513369 L108.197851,205.513369 L105.853601,212.532086 L98.3754445,212.532086 L111.081278,178.467914 L117.598292,178.467914 L130.374453,212.532086 L122.896297,212.532086 L120.528604,205.513369 Z M110.096693,199.828209 L118.629762,199.828209 L114.339785,187.07754 L110.096693,199.828209 Z M163.273654,204.08623 L171.009678,178.467914 L178.839472,178.467914 L166.954126,212.532086 L159.616624,212.532086 L147.778163,178.467914 L155.584515,178.467914 L163.273654,204.08623 Z M221.490751,197.769385 L207.987873,197.769385 L207.987873,206.893717 L223.835001,206.893717 L223.835001,212.532086 L200.955123,212.532086 L200.955123,178.467914 L223.788116,178.467914 L223.788116,184.153075 L207.987873,184.153075 L207.987873,192.27139 L221.490751,192.27139 L221.490751,197.769385 Z M253.897659,206.893717 L268.83053,206.893717 L268.83053,212.532086 L246.86491,212.532086 L246.86491,178.467914 L253.897659,178.467914 L253.897659,206.893717 Z M330.104528,212.532086 L323.071779,212.532086 L323.071779,178.467914 L330.104528,178.467914 L330.104528,212.532086 Z M383.281489,212.532086 L376.24874,212.532086 L362.558321,190.118984 L362.558321,212.532086 L355.525572,212.532086 L355.525572,178.467914 L362.558321,178.467914 L376.272182,200.927807 L376.272182,178.467914 L383.281489,178.467914 L383.281489,212.532086 Z M426.026538,203.59492 C426.026538,203.002225 425.940583,202.468028 425.768671,201.992313 C425.596758,201.516597 425.264659,201.075982 424.772365,200.670455 C424.28007,200.264927 423.600244,199.867203 422.732867,199.477273 C421.865491,199.087342 420.744169,198.674022 419.368869,198.237299 C417.806028,197.738188 416.333072,197.176697 414.949958,196.552807 C413.566844,195.928918 412.35566,195.191961 411.316371,194.341912 C410.277082,193.491863 409.456603,192.513152 408.854909,191.405749 C408.253215,190.298346 407.952373,189.003795 407.952373,187.522059 C407.952373,186.102711 408.261029,184.804262 408.878351,183.626671 C409.495674,182.449081 410.363037,181.446974 411.480469,180.620321 C412.5979,179.793668 413.926295,179.150292 415.465693,178.690174 C417.005092,178.230056 418.696841,178 420.540994,178 C422.432031,178 424.151131,178.26125 425.698343,178.783757 C427.245556,179.306264 428.566137,180.035423 429.660125,180.971257 C430.754114,181.90709 431.598035,183.018376 432.191915,184.305147 C432.785795,185.591918 433.08273,186.999547 433.08273,188.528075 L426.049981,188.528075 C426.049981,187.810602 425.936676,187.14773 425.710064,186.539439 C425.483453,185.931147 425.135726,185.408647 424.666873,184.971925 C424.198021,184.535203 423.611964,184.195968 422.908686,183.954211 C422.205408,183.712454 421.377114,183.591578 420.423781,183.591578 C419.501705,183.591578 418.700761,183.692958 418.020925,183.895722 C417.34109,184.098486 416.778475,184.379232 416.333066,184.737968 C415.887656,185.096704 415.55165,185.517823 415.325038,186.001337 C415.098426,186.484851 414.985122,186.999552 414.985122,187.545455 C414.985122,188.668455 415.559457,189.608174 416.708146,190.364639 C417.856834,191.121104 419.54077,191.826868 421.760004,192.481952 C423.619784,193.059049 425.256836,193.698526 426.671207,194.400401 C428.085578,195.102276 429.265505,195.897723 430.211024,196.786765 C431.156543,197.675807 431.871532,198.674014 432.356012,199.781417 C432.840493,200.88882 433.08273,202.144378 433.08273,203.548128 C433.08273,205.045462 432.789702,206.379005 432.203636,207.548797 C431.617571,208.718589 430.785371,209.705098 429.70701,210.508356 C428.62865,211.311613 427.327604,211.927694 425.803834,212.356618 C424.280065,212.785541 422.5805,213 420.705091,213 C419.579846,213 418.454617,212.902519 417.329372,212.707553 C416.204126,212.512588 415.129689,212.212346 414.106028,211.806818 C413.082367,211.40129 412.132956,210.894388 411.257765,210.286096 C410.382574,209.677804 409.6207,208.960343 408.972121,208.13369 C408.323542,207.307037 407.815627,206.367318 407.448359,205.314505 C407.081091,204.261693 406.89746,203.095817 406.89746,201.816845 L413.953652,201.816845 C413.953652,202.846262 414.117748,203.719693 414.445945,204.437166 C414.774141,205.154638 415.231265,205.735626 415.817331,206.180147 C416.403396,206.624668 417.110571,206.948306 417.938877,207.15107 C418.767182,207.353833 419.689245,207.455214 420.705091,207.455214 C421.611539,207.455214 422.400762,207.357733 423.072784,207.162767 C423.744805,206.967802 424.299605,206.698754 424.737201,206.355615 C425.174796,206.012476 425.499081,205.603055 425.710064,205.12734 C425.921048,204.651624 426.026538,204.140823 426.026538,203.59492 Z M482.579218,178.467914 L482.579218,200.951203 C482.579218,202.916454 482.251027,204.651619 481.594633,206.156751 C480.93824,207.661884 480.031806,208.921341 478.875304,209.93516 C477.718801,210.94898 476.339615,211.713233 474.737703,212.227941 C473.135791,212.74265 471.389342,213 469.498305,213 C467.591639,213 465.837376,212.74265 464.235464,212.227941 C462.633552,211.713233 461.254366,210.94898 460.097863,209.93516 C458.941361,208.921341 458.038834,207.661884 457.390255,206.156751 C456.741676,204.651619 456.417391,202.916454 456.417391,200.951203 L456.417391,178.467914 L463.450141,178.467914 L463.450141,200.951203 C463.450141,203.181607 463.985406,204.807593 465.055952,205.829211 C466.126498,206.85083 467.607267,207.361631 469.498305,207.361631 C471.404971,207.361631 472.88574,206.85083 473.940658,205.829211 C474.995576,204.807593 475.523027,203.181607 475.523027,200.951203 L475.523027,178.467914 L482.579218,178.467914 Z M519.885608,200.062166 L514.282851,200.062166 L514.282851,212.532086 L507.250102,212.532086 L507.250102,178.467914 L519.932493,178.467914 C521.901673,178.467914 523.667657,178.690172 525.230498,179.134693 C526.793338,179.579213 528.113919,180.234287 529.19228,181.099933 C530.27064,181.965579 531.098933,183.037872 531.677184,184.316845 C532.255435,185.595817 532.544557,187.077532 532.544557,188.762032 C532.544557,190.00981 532.403903,191.128894 532.122592,192.119318 C531.84128,193.109742 531.434948,193.990972 530.903582,194.763035 C530.372216,195.535097 529.731461,196.209667 528.981297,196.786765 C528.231133,197.363862 527.387212,197.862966 526.449507,198.284091 L533.833894,212.204545 L533.833894,212.532086 L526.28541,212.532086 L519.885608,200.062166 Z M514.282851,194.377005 L519.955936,194.377005 C520.878012,194.377005 521.68677,194.256129 522.382234,194.014372 C523.077698,193.772615 523.655941,193.429481 524.116979,192.98496 C524.578017,192.540439 524.925744,192.010141 525.16017,191.394051 C525.394596,190.77796 525.511807,190.087793 525.511807,189.323529 C525.511807,187.717015 525.054683,186.453659 524.140421,185.533422 C523.226159,184.613186 521.823531,184.153075 519.932493,184.153075 L514.282851,184.153075 L514.282851,194.377005 Z M576.063208,205.513369 L563.732455,205.513369 L561.388205,212.532086 L553.910048,212.532086 L566.615882,178.467914 L573.132896,178.467914 L585.909057,212.532086 L578.430901,212.532086 L576.063208,205.513369 Z M565.631297,199.828209 L574.164366,199.828209 L569.874389,187.07754 L565.631297,199.828209 Z M635.757183,212.532086 L628.724434,212.532086 L615.034015,190.118984 L615.034015,212.532086 L608.001266,212.532086 L608.001266,178.467914 L615.034015,178.467914 L628.747876,200.927807 L628.747876,178.467914 L635.757183,178.467914 L635.757183,212.532086 Z M687.597921,201.18516 C687.472894,202.916453 687.08219,204.507346 686.425796,205.957888 C685.769403,207.40843 684.862969,208.65229 683.706467,209.689505 C682.549964,210.726721 681.147336,211.537764 679.498538,212.12266 C677.849741,212.707556 675.970453,213 673.860618,213 C671.67264,213 669.707397,212.621773 667.96483,211.865307 C666.222262,211.108842 664.745399,210.020952 663.534198,208.601604 C662.322996,207.182257 661.39312,205.462688 660.744541,203.442848 C660.095962,201.423007 659.771677,199.157544 659.771677,196.64639 L659.771677,194.400401 C659.771677,191.889248 660.107683,189.619885 660.779704,187.592246 C661.451726,185.564607 662.401138,183.841139 663.627968,182.421791 C664.854798,181.002444 666.343382,179.910654 668.093763,179.14639 C669.844145,178.382126 671.797667,178 673.954388,178 C676.079852,178 677.95914,178.300242 679.592308,178.900735 C681.225477,179.501228 682.612478,180.335668 683.753352,181.404078 C684.894226,182.472488 685.785032,183.743642 686.425796,185.21758 C687.066561,186.691518 687.472894,188.294109 687.644806,190.025401 L680.612057,190.025401 C680.533915,189.011581 680.358098,188.114754 680.084601,187.334893 C679.811104,186.555032 679.416492,185.899958 678.900755,185.369652 C678.385017,184.839347 677.72082,184.437724 676.908142,184.164773 C676.095465,183.891821 675.11089,183.755348 673.954388,183.755348 C671.57887,183.755348 669.808979,184.617081 668.644662,186.340575 C667.480346,188.064068 666.898196,190.735053 666.898196,194.35361 L666.898196,196.64639 C666.898196,198.408877 667.027129,199.952979 667.284997,201.278743 C667.542866,202.604508 667.949199,203.711894 668.504007,204.600936 C669.058816,205.489978 669.777712,206.156749 670.660717,206.60127 C671.543722,207.045791 672.610345,207.268048 673.860618,207.268048 C674.970235,207.268048 675.927461,207.143272 676.732324,206.893717 C677.537187,206.644161 678.209198,206.265934 678.748378,205.759024 C679.287559,205.252114 679.705612,204.616537 680.002552,203.852273 C680.299492,203.088009 680.48703,202.19898 680.565172,201.18516 L687.597921,201.18516 Z M731.65575,197.769385 L718.152872,197.769385 L718.152872,206.893717 L734,206.893717 L734,212.532086 L711.120123,212.532086 L711.120123,178.467914 L733.953115,178.467914 L733.953115,184.153075 L718.152872,184.153075 L718.152872,192.27139 L731.65575,192.27139 L731.65575,197.769385 Z" id="TRAVELINSURANCE" fill="#333333" fill-rule="nonzero"></path>
    </g>
</svg>