<svg id="Layer_1" data-name="Layer 1" xmlns="http://www.w3.org/2000/svg" xmlns:xlink="http://www.w3.org/1999/xlink" viewBox="0 0 157.8 46.96">
  <defs>
    <linearGradient id="linear-gradient" x1="24.33" y1="14.39" x2="24.33" y2="24.44" gradientTransform="matrix(1, 0, 0, -1, 0, 48.19)" gradientUnits="userSpaceOnUse">
      <stop offset="0"/>
      <stop offset="1" stop-color="#fff"/>
    </linearGradient>
    <linearGradient id="linear-gradient-2" x1="23.09" y1="14.39" x2="23.09" y2="30.94" gradientTransform="matrix(1, 0, 0, -1, 0, 48.19)" gradientUnits="userSpaceOnUse">
      <stop offset="0" stop-color="#fff"/>
      <stop offset="1" stop-color="#bcbebf"/>
    </linearGradient>
    <linearGradient id="linear-gradient-3" x1="20.52" y1="14.39" x2="20.52" y2="30.94" xlink:href="#linear-gradient-2"/>
    <linearGradient id="linear-gradient-4" x1="25.06" y1="14.39" x2="25.06" y2="30.94" xlink:href="#linear-gradient-2"/>
    <linearGradient id="linear-gradient-5" x1="21.99" y1="14.39" x2="21.99" y2="30.94" xlink:href="#linear-gradient-2"/>
    <mask id="mask" x="17.78" y="23.75" width="12.7" height="11.01" maskUnits="userSpaceOnUse">
      <g transform="translate(-0.2 -0.02)">
        <g id="mask0">
          <path d="M30.68,23.77H18v11h12.7Z" style="fill: url(#linear-gradient)"/>
        </g>
      </g>
    </mask>
    <linearGradient id="linear-gradient-6" x1="24.33" y1="14.39" x2="24.33" y2="24.44" xlink:href="#linear-gradient-2"/>
  </defs>
  <title>logo</title>
  <path d="M60.62,23.3a2.61,2.61,0,0,0,1.67-2.49c0-2.61-1.87-3.69-4.41-3.69H51.8V30h6.08c2.67,0,4.81-.94,4.81-3.76A3.35,3.35,0,0,0,60.62,23.3Zm-6.48-4h3.67c1.54,0,2,1,2,1.54,0,.74-.47,1.34-2,1.34H54.14Zm3.74,8.32H54.14V24.37h3.67c1,0,2.41.61,2.41,1.75S58.82,27.66,57.88,27.66ZM64.63,30h2.21V17.12H64.63Zm9-9.34a4.55,4.55,0,0,0-4.82,4.7,4.58,4.58,0,0,0,5,4.84,5.4,5.4,0,0,0,3.88-1.48l-1.41-1.41a3.73,3.73,0,0,1-2.4.87c-1.61,0-2.54-.8-2.68-1.94h7C78.47,22.49,76.59,20.61,73.59,20.61Zm-2.48,3.76a2.48,2.48,0,0,1,2.54-1.74A2.07,2.07,0,0,1,76,24.37Zm12.3,0c-1.13-.06-1.67-.4-1.67-1s.6-.88,1.67-.88a2.9,2.9,0,0,1,2.21.81l1.27-1.48a4.79,4.79,0,0,0-3.55-1.21c-1.67,0-3.81.74-3.81,2.82s2,2.69,3.75,2.82c1.27.07,1.8.41,1.8,1.08s-.8,1-1.6,1a4.32,4.32,0,0,1-3.14-1.27l-1.07,1.61a5.38,5.38,0,0,0,4.14,1.61c2.61,0,3.88-1.34,3.88-3C87.22,24.91,85.08,24.51,83.41,24.37Zm9.09,0c-1.14-.06-1.67-.4-1.67-1s.6-.88,1.67-.88a2.9,2.9,0,0,1,2.21.81L96,21.82a4.79,4.79,0,0,0-3.55-1.21c-1.67,0-3.81.74-3.81,2.82s2,2.69,3.75,2.82c1.27.07,1.8.41,1.8,1.08s-.8,1-1.6,1a4.32,4.32,0,0,1-3.14-1.27l-1.07,1.61a5.38,5.38,0,0,0,4.14,1.61c2.61,0,3.88-1.34,3.88-3C96.31,24.91,94.17,24.51,92.5,24.37Zm9.83-3.76a4.55,4.55,0,0,0-4.82,4.7,4.58,4.58,0,0,0,4.95,4.84,5.4,5.4,0,0,0,3.88-1.48l-1.41-1.41a3.73,3.73,0,0,1-2.4.87c-1.61,0-2.54-.8-2.68-1.94h7C107.27,22.49,105.4,20.61,102.33,20.61Zm-2.41,3.76a2.47,2.47,0,0,1,2.54-1.74,2.07,2.07,0,0,1,2.34,1.74Zm15.84-7.25v5a3.75,3.75,0,0,0-2.94-1.48,4.34,4.34,0,0,0-4.61,4.7,4.41,4.41,0,0,0,4.61,4.7,3.3,3.3,0,0,0,2.94-1.48l.13,1.28H118V17.12Zm-2.81,11a2.54,2.54,0,0,1-2.54-2.69A2.48,2.48,0,0,1,113,22.76a2.66,2.66,0,0,1,0,5.31Z" transform="translate(-0.2 -0.02)" style="fill: #5c666a"/>
  <path d="M129.86,26.66a4.54,4.54,0,0,1-3.21,1.27,4.11,4.11,0,0,1-4.41-4.36,4.21,4.21,0,0,1,4.41-4.43,4.35,4.35,0,0,1,3.08,1.2l1.6-1.54a6.66,6.66,0,0,0-4.68-1.95,6.42,6.42,0,0,0-6.75,6.78c0,3.36,2,6.65,6.75,6.65a6.83,6.83,0,0,0,4.88-1.88Z" transform="translate(-0.2 -0.02)" style="fill: #00b4ee"/>
  <path d="M135.74,24.37h3.68c1,0,2.4.61,2.4,1.75s-1.4,1.54-2.4,1.54h-3.68Zm0-5h3.68c1.54,0,2,1,2,1.54,0,.74-.46,1.34-2,1.34h-3.68Zm3.68-2.22h-6.08V30h6.08c2.67,0,4.81-.94,4.81-3.76a3.14,3.14,0,0,0-2.07-2.89,2.61,2.61,0,0,0,1.67-2.49C143.83,18.26,142,17.12,139.42,17.12Z" transform="translate(-0.2 -0.02)" style="fill: #00b4ee"/>
  <path d="M151.58,17.12h-5V30h5A6.08,6.08,0,0,0,158,23.43C157.93,20.21,156,17.12,151.58,17.12ZM149,19.4h2.6a3.82,3.82,0,0,1,4,4,3.8,3.8,0,0,1-4,4.23H149Z" transform="translate(-0.2 -0.02)" style="fill: #00b4ee"/>
  <path d="M38.56,8.33l-12.29-7a9.08,9.08,0,0,0-9.23,0L4.75,8.39a9.31,9.31,0,0,0-4.55,8v14.3a7.22,7.22,0,0,0,.27,2.09l1.27-2,1.47,4.16,1.94-2.08,2.4,1.55,5-5.51-.73.81L23,17.26l.07.06L23,17.26l.54.53L34.69,30.08l.33.13,1.81,2,4.47,3.89a9,9,0,0,0,1.88-5.57V16.32A9.6,9.6,0,0,0,38.56,8.33Z" transform="translate(-0.2 -0.02)" style="fill: #1cb9e9"/>
  <path d="M5.41,39l.34.2.06-.8Z" transform="translate(-0.2 -0.02)" style="fill: #1cb9e9"/>
  <path d="M35,30.28l-.33-.13v1.47l-5-3.15-1.87,2.35-2-1.88V29l-1.47,2.21-1.34,2.42-.13-.2-.27.33-4.47-7.92-5.49,3-5,5.51.8.53-2.6,3.5-.07.8L17,45.72a8.93,8.93,0,0,0,9.22-.06l11.36-6.58-.87-6.85Z" transform="translate(-0.2 -0.02)" style="fill: #3d4e51"/>
  <path d="M23,17.26l.07.06h.06Z" transform="translate(-0.2 -0.02)" style="fill: #3d4e51"/>
  <path d="M23.53,17.79,23,17.26l.2.2Z" transform="translate(-0.2 -0.02)" style="fill: #3d4e51"/>
  <path d="M23.12,17.32h-.06L23,17.26,11.9,29.68l.66-.81,5.62-3Z" transform="translate(-0.2 -0.02)" style="fill: #e2e2e2"/>
  <path d="M23,33.64l1.34-2.49-1.41,2.29Z" transform="translate(-0.2 -0.02)" style="fill: #e2e2e2"/>
  <path d="M25.8,28.87l2,1.95,1.87-2.35,5,3.15V30.15L23.53,17.79l-.34-.33Z" transform="translate(-0.2 -0.02)" style="fill: #e2e2e2"/>
  <path d="M23.19,17.46l-.2-.2.13.06Z" transform="translate(-0.2 -0.02)" style="fill: #3d4e51"/>
  <path d="M23.19,17.26H23v.2h.2Z" transform="translate(-0.2 -0.02)" style="fill: url(#linear-gradient-2)"/>
  <path d="M22.66,33.77l.26-.33-4.74-7.59Z" transform="translate(-0.2 -0.02)" style="fill: #3d4e51"/>
  <path d="M22.86,25.85H18.18v7.92h4.68Z" transform="translate(-0.2 -0.02)" style="fill: url(#linear-gradient-3)"/>
  <path d="M24.33,31.15l1.47-2.21v-.07l-.14-.07Z" transform="translate(-0.2 -0.02)" style="fill: #3d4e51"/>
  <path d="M25.8,28.8H24.33v2.42H25.8Z" transform="translate(-0.2 -0.02)" style="fill: url(#linear-gradient-4)"/>
  <path d="M23.12,17.32l-4.94,8.53,4.74,7.59,1.41-2.29,1.33-2.35.14.07L23.19,17.46Z" transform="translate(-0.2 -0.02)" style="fill: #e2e2e2"/>
  <path d="M25.8,17.32H18.18V33.44H25.8Z" transform="translate(-0.2 -0.02)" style="fill: url(#linear-gradient-5)"/>
  <path d="M8.29,33.64l-.67.74L5.21,32.83l-2,2.08L1.67,30.75l-1.27,2a9.14,9.14,0,0,0,4.34,5.84l1,.6.06-.8Z" transform="translate(-0.2 -0.02)" style="fill: #f1edea"/>
  <path d="M37.63,39.14l.93-.53a9.18,9.18,0,0,0,2.68-2.35l-4.48-3.9Z" transform="translate(-0.2 -0.02)" style="fill: #f1edea"/>
  <path d="M18,20.68v-5.1h6.35c2.68,0,3.48,1.68,3.48,2.75s-.67,2.15-2.67,2.35L30.68,26l2,2.22c.07-.2,0-.07,0-.74a5.41,5.41,0,0,0-3.54-5A4.49,4.49,0,0,0,32,18.2c0-4.5-3.27-6.45-7.62-6.45H14V27.33l6.41-6.72H18Z" transform="translate(-0.2 -0.02)" style="fill: #f5f5f5"/>
  <g style="mask: url(#mask)">
    <path d="M30.68,23.77H18v11h12.7Z" transform="translate(-0.2 -0.02)" style="fill: url(#linear-gradient-6)"/>
  </g>
  <path d="M23.53,17.79,23,17.26l.07.06Z" transform="translate(-0.2 -0.02)" style="fill: #3d4e51"/>
  <path d="M14.77,20.41h11.9l2.2,3.36H14.77Z" transform="translate(-0.2 -0.02)" style="fill: #f5f5f5"/>
  <path d="M35,30.28l-.34-.13v1.47l-5-3.15-1.87,2.35-2-1.88V29l-1.47,2.21-1.47,2.22-.27.33-4.47-7.92-5.48,3-5,5.51-1.74,4-.06.8L17,45.72a9,9,0,0,0,9.23-.06l11.36-6.58-.87-6.85Z" transform="translate(-0.2 -0.02)" style="fill: #3d4e51"/>
</svg>
