<svg width="1150" height="168" viewBox="0 0 1150 168" fill="none" xmlns="http://www.w3.org/2000/svg">
<path fill-rule="evenodd" clip-rule="evenodd" d="M380.109 167.932C413.86 167.932 440.729 152.003 454.5 126.337L428.073 114.609C419.191 131.204 402.093 140.938 380.109 140.938C346.801 140.938 325.04 118.151 325.04 83.6331C325.04 49.1185 346.801 26.5516 380.109 26.5516C398.985 26.5516 414.083 33.852 423.631 46.2423C425.188 48.4559 426.742 50.8894 428.073 53.3229L454.72 42.4806C441.175 16.3718 414.083 0 380.109 0C331.256 0 296.171 34.7375 296.171 84.0759C296.171 133.417 331.256 167.932 380.109 167.932ZM719.676 42.3982H757.4V68.3636H719.676V121.522C719.676 133.032 725.554 138.913 737.312 138.913H757.4V164.879H735.355C705.958 164.879 691.751 150.18 691.751 121.522V68.3636H678.28V42.3982H691.751V0.757177H719.676V42.3982ZM520.665 167.327C534.628 167.327 546.63 162.918 555.937 154.589V164.879H584.354V42.3982H555.937V52.6879C546.63 44.6027 534.628 39.9495 520.665 39.9495C483.43 39.9495 456.976 66.4063 456.976 103.638C456.976 141.118 483.43 167.327 520.665 167.327ZM520.665 141.362C499.109 141.362 484.902 126.419 484.902 103.638C484.902 80.8576 499.109 65.9148 520.665 65.9148C541.974 65.9148 555.937 80.8576 555.937 103.638C555.937 126.419 541.974 141.362 520.665 141.362ZM600.094 164.879H628.511V86.7353L665.743 71.5482V42.3982L628.511 58.5655V42.3982H600.094V164.879ZM782.892 164.879H810.817V68.3636H848.541V42.3982H810.817V40.441C810.817 31.1315 814.982 26.7226 823.556 26.7226H848.541V0.757177H821.351C795.63 0.757177 782.892 13.9841 782.892 40.441V42.3982H769.421V68.3636H782.892V164.879ZM911.268 167.327C882.363 167.327 862.031 146.015 862.031 115.885V42.3982H890.2V115.885C890.2 131.075 900.49 141.362 915.677 141.362C930.864 141.362 941.151 131.075 941.151 115.885V42.3982H969.076V164.879H941.151V155.325C933.557 162.918 923.271 167.327 911.268 167.327ZM1109.43 103.638C1109.43 66.4063 1082.98 39.9495 1045.74 39.9495C1008.51 39.9495 982.056 66.4063 982.056 103.638C982.056 141.118 1008.51 167.327 1045.74 167.327C1073.18 167.327 1097.18 153.609 1104.04 130.339H1072.69C1066.57 139.402 1056.77 142.342 1045.74 142.342C1027.62 142.342 1014.88 131.808 1010.96 114.416H1108.45C1108.94 110.988 1109.43 107.315 1109.43 103.638ZM1045.74 64.9346C1062.64 64.9346 1075.14 74.4884 1079.3 90.4114H1011.69C1016.1 74.4884 1028.6 64.9346 1045.74 64.9346ZM1150 0.757177V164.879H1121.59V0.757177H1150Z" fill="#2B46F6"/>
<path d="M0 139.185C0 139.185 17.184 112.545 48.7613 110.817C80.3416 109.086 109.598 119.696 135.255 110.472C135.255 110.472 107.275 146.449 42.0288 139.646C42.1448 139.646 8.94008 135.494 0 139.185Z" fill="#2B46F6"/>
<path d="M32.2766 99.8615C32.2766 99.8615 57.7014 64.2294 104.258 62.0402C150.815 59.7319 194.004 73.9175 231.969 61.576C231.969 61.576 190.636 109.663 94.39 100.555C94.506 100.439 45.5127 94.9029 32.2766 99.8615Z" fill="url(#paint0_linear_11_70)"/>
<path d="M75.4657 53.3901C75.4657 53.3901 102.399 9.34004 154.18 4.95855C205.845 0.577053 254.49 16.2589 296.287 0C296.287 0 252.17 59.7318 144.776 52.0069C144.66 52.0069 89.9781 46.9323 75.4657 53.3901Z" fill="url(#paint1_linear_11_70)"/>
<defs>
<linearGradient id="paint0_linear_11_70" x1="132.123" y1="61.576" x2="132.123" y2="101.703" gradientUnits="userSpaceOnUse">
<stop stop-color="#2B46F6"/>
</linearGradient>
<linearGradient id="paint1_linear_11_70" x1="185.876" y1="0" x2="185.876" y2="53.3901" gradientUnits="userSpaceOnUse">
<stop stop-color="#2B46F6"/>
</linearGradient>
</defs>
</svg>
