<svg xmlns="http://www.w3.org/2000/svg" fill="none" viewBox="0 0 264 70" height="70" width="264">
<g clip-path="url(#clip0_529_2189)">
<mask height="41" width="214" y="13" x="50" maskUnits="userSpaceOnUse" style="mask-type:luminance" id="mask0_529_2189">
<path fill="white" d="M264 13H50V54H264V13Z"></path>
</mask>
<g mask="url(#mask0_529_2189)">
<path fill="#2B4042" d="M81.1879 16.4457H69.0025C70.6436 17.2939 71.9447 20.0677 71.9447 23.2317V29.3476H59.5381V23.2317C59.5381 20.0847 60.8817 17.2939 62.5228 16.4457H50.3374C51.9786 17.2939 53.3221 20.0677 53.3221 23.2317V39.866C53.3221 43.013 52.1061 45.8038 50.4224 46.6521H62.4378C60.7371 45.8038 59.5381 43.03 59.5381 39.866V31.1035H71.9447V39.8491C71.9447 42.9961 70.7287 45.7868 69.0875 46.6351H81.1029C79.4022 45.7868 78.2117 43.0131 78.2117 39.8491V23.2148C78.2117 20.0677 79.5468 17.277 81.1879 16.4287"></path>
<path fill="#2B4042" d="M88.279 40.8414C87.835 39.3149 87.617 37.7316 87.633 36.1421C87.633 30.4503 89.495 26.6586 92.131 26.6586C93.679 26.6586 94.682 27.8631 94.682 30.1534C94.682 34.8527 88.943 36.405 88.245 40.8414M100.218 31.2306C100.218 28.8131 97.667 25.4116 91.919 25.4116C86.17 25.4116 81.4766 29.8056 81.4766 36.1421C81.4766 42.4785 86.06 46.9234 92.157 46.9234C97.08 46.9234 99.546 44.4634 99.546 42.8687C99.536 42.3416 99.337 41.8354 98.987 41.4407C98.636 41.046 98.156 40.7885 97.633 40.7141C97.242 42.5209 95.771 45.5832 92.88 45.5832C92.411 45.6187 91.939 45.5527 91.498 45.3897C91.057 45.2266 90.656 44.9704 90.323 44.6385C89.991 44.3066 89.734 43.9069 89.57 43.4667C89.407 43.0266 89.341 42.5564 89.376 42.0883C89.376 35.8876 100.269 37.6944 100.269 31.2306"></path>
<path fill="#2B4042" d="M136.749 40.2818V33.9453C136.749 29.3308 134.674 25.4119 130.176 25.4119C127.242 25.4119 124.648 27.1762 123.007 31.7059C122.403 28.1263 120.371 25.4119 116.613 25.4119C113.067 25.4119 110.779 28.1687 109.606 31.5278V25.1489C107.255 26.5835 104.661 27.5781 101.953 28.0839C103.509 28.8134 103.806 31.4769 103.806 34.4204V40.2818C103.806 43.2592 103.509 45.8379 101.953 46.6183H111.545C109.988 45.8379 109.64 43.2253 109.64 40.2818C109.64 31.3582 112.412 28.3384 114.657 28.3384C116.511 28.3384 117.378 30.4081 117.378 33.2158V40.2818C117.378 43.2592 117.029 45.8379 115.524 46.6183H125.074C123.56 45.8379 123.211 43.2253 123.211 40.2818C123.211 31.3582 125.975 28.3384 128.177 28.3384C130.082 28.3384 130.907 30.4081 130.907 33.2158V40.2818C130.907 43.2592 130.601 45.8379 129.045 46.6183H138.637C137.08 45.8379 136.783 43.2253 136.783 40.2818"></path>
<path fill="#2B4042" d="M150.277 45.066C149.601 45.0023 148.945 44.8008 148.349 44.474C147.754 44.1472 147.232 43.7019 146.816 43.1659V38.1272C146.816 33.7757 148.032 27.8209 150.881 27.8209C152.913 27.8209 154.282 30.8407 154.282 36.2272C154.282 43.2168 152.301 45.066 150.311 45.066M152.905 25.4119C151.543 25.4411 150.225 25.8978 149.138 26.7171C148.051 27.5363 147.251 28.6765 146.85 29.9755V25.1489C144.5 26.5835 141.906 27.5781 139.197 28.0839C140.753 28.8134 141.051 31.4769 141.051 34.4204V48.5438C141.051 51.5127 140.753 54.0999 139.197 54.8803H149.265C147.709 54.0999 146.884 51.4873 146.884 48.5438V45.2186C148.192 46.3714 149.894 46.9788 151.638 46.9152C156.527 46.9152 160.456 42.9877 160.456 36.1338C160.456 29.2799 156.995 25.4034 152.939 25.4034"></path>
<path fill="#2B4042" d="M207.847 40.2818V25.1489C205.475 26.5721 202.87 27.5657 200.151 28.0839C201.622 28.771 202.013 31.7059 202.013 33.3431C202.013 38.4326 200.245 44.0735 196.996 44.0735C195.143 44.0735 194.275 41.9613 194.275 39.2045V25.1489C191.924 26.5835 189.331 27.5781 186.622 28.0839C188.178 28.8134 188.476 31.4769 188.476 34.4204V38.3647C188.476 42.9793 190.551 46.8982 195.049 46.8982C198.45 46.8982 200.84 44.4467 202.047 41.2997V46.6013H209.7C208.195 45.8209 207.847 43.2083 207.847 40.2648"></path>
<path fill="#2B4042" d="M223.245 31.8329C223.604 32.3864 224.098 32.8391 224.682 33.1479C225.265 33.4568 225.918 33.6115 226.579 33.5973C226.983 33.6284 227.39 33.5777 227.774 33.4482C228.158 33.3188 228.512 33.1132 228.815 32.8438C229.117 32.5744 229.362 32.2469 229.535 31.8807C229.707 31.5146 229.804 31.1175 229.819 30.7132C229.819 27.7783 226.417 25.4116 221.562 25.4116C215.686 25.4116 211.103 29.8056 211.103 36.1421C211.103 42.4785 215.686 46.9149 221.774 46.9149C226.706 46.9149 229.164 44.4634 229.164 42.8687C229.152 42.3377 228.95 41.8285 228.594 41.4333C228.239 41.0381 227.753 40.7829 227.225 40.7141C226.834 42.5209 225.363 45.5832 222.472 45.5832C219.232 45.5832 217.242 41.3419 217.242 36.1421C217.242 30.4503 219.232 26.6586 221.995 26.6586C222.337 26.6557 222.675 26.7227 222.989 26.8555C223.303 26.9882 223.586 27.184 223.822 27.4305C224.057 27.677 224.239 27.9691 224.356 28.2887C224.473 28.6082 224.524 28.9484 224.504 29.2881C224.502 29.7799 224.388 30.2647 224.17 30.7057C223.952 31.1467 223.635 31.5322 223.245 31.8329Z"></path>
<path fill="#2B4042" d="M235.899 22.7819C238.101 22.7819 239.487 21.4841 239.487 19.4652C239.487 17.4464 238.101 16.14 235.899 16.14C233.697 16.14 232.311 17.4379 232.311 19.4652C232.311 21.4925 233.697 22.7819 235.899 22.7819Z"></path>
<path fill="#2B4042" d="M239.14 40.2818V25.1489C236.789 26.5821 234.196 27.5766 231.487 28.0839C233.043 28.8134 233.341 31.4769 233.341 34.4204V40.2818C233.341 43.2592 233.043 45.8379 231.487 46.6183H241.079C239.523 45.8379 239.174 43.2253 239.174 40.2818"></path>
<path fill="#2B4042" d="M252.125 44.5485C250.136 44.5485 248.537 41.5712 248.537 36.1423C248.537 30.0264 250.238 27.3968 252.559 27.3968C253.809 27.3968 254.847 28.0839 255.96 28.5165V31.4854C255.96 37.9067 255.399 44.5485 252.117 44.5485M263.656 46.6183C262.1 45.8379 261.794 43.2253 261.794 40.2818V15.6824C259.417 17.1168 256.793 18.0977 254.056 18.5749C255.612 19.3468 255.96 21.968 255.96 24.9114V26.9387C254.668 26.4213 253.367 25.4288 250.901 25.4288C246.062 25.4288 242.397 29.3478 242.397 36.1593C242.397 42.7163 245.799 46.9406 250.263 46.9406C253.12 46.9406 255.144 45.3883 255.969 42.3261V46.6352L263.656 46.6183Z"></path>
<path fill="#2B4042" d="M174.75 44.6163C170.949 44.6841 170.498 41.1638 170.456 40.1629C170.456 40.0696 170.456 39.9848 170.456 39.8915V23.2148C170.456 20.0677 171.748 17.277 173.389 16.4287H161.195C162.845 17.277 164.18 20.0508 164.18 23.2148V39.8491C164.18 42.9961 162.973 45.7868 161.289 46.6351H185.269L185.915 36.6342C182.896 42.5211 179.189 44.5569 174.75 44.6332"></path>
</g>
<mask height="88" width="74" y="-14" x="-18" maskUnits="userSpaceOnUse" style="mask-type:luminance" id="mask1_529_2189">
<path fill="white" d="M55.5044 -14H-17.5044V73.7659H55.5044V-14Z"></path>
</mask>
<g mask="url(#mask1_529_2189)">
<path fill="#223335" d="M34.2598 15.7279C33.5569 14.7159 32.6524 13.8594 31.6027 13.2118C30.5531 12.5642 29.3808 12.1394 28.1592 11.9641C26.9376 11.7887 25.6929 11.8664 24.5028 12.1925C23.3126 12.5185 22.2027 13.0858 21.2422 13.859C22.043 12.4375 23.1452 11.2076 24.4719 10.2551C25.7986 9.30263 27.3178 8.65063 28.9233 8.34463L32.3819 9.72153C32.9381 9.94043 33.4151 10.3216 33.7505 10.8153C34.086 11.309 34.2642 11.8922 34.262 12.4886L34.2598 15.7279ZM34.2598 23.0651C33.492 22.4274 32.6724 21.8544 31.8095 21.3521C30.7966 20.7774 29.8386 20.1114 28.9475 19.3624H28.9321C28.3196 18.8279 27.812 18.1845 27.4351 17.465C27.0635 16.6085 26.4512 15.8778 25.6722 15.361C24.8931 14.8442 23.9808 14.5636 23.0453 14.553C24.0559 13.9374 25.2004 13.5736 26.3818 13.4926C27.5631 13.4115 28.7467 13.6155 29.8324 14.0873C30.918 14.5591 31.8737 15.2848 32.6187 16.203C33.3637 17.1212 33.876 18.2049 34.1123 19.3624C34.2096 19.8454 34.259 20.3368 34.2598 20.8294V23.0651ZM34.2598 36.4943C34.001 35.9743 33.7122 35.4698 33.3946 34.9833C32.7628 34.0127 32.1683 33.1518 31.6444 32.3919C29.2513 28.9243 27.9018 26.9698 27.827 21.7189V20.5286C28.7978 21.407 29.9162 22.0966 30.9553 22.7247C33.0027 23.9809 34.2576 24.8198 34.2576 26.2384L34.2598 36.4943ZM33.7072 49.1658C33.1632 48.6705 32.6846 48.1081 32.2828 47.4924C30.3477 44.5913 29.7555 40.6844 29.5992 37.8932C29.5992 37.8558 29.5992 37.8185 29.5992 37.7834C29.599 35.5977 29.3778 33.4177 28.9387 31.2763C29.3548 31.9242 29.8193 32.594 30.3059 33.3033C30.8254 34.0544 31.4066 34.9065 32.0341 35.8596C33.7953 38.5762 34.1981 41.1895 34.2466 44.5035C34.2441 46.0735 34.0594 47.6381 33.6962 49.1658M26.9662 59.1932C26.5501 56.5864 26.7768 53.0441 30.5392 51.7857C31.3529 51.5622 32.1858 51.4151 33.0269 51.3465C31.8447 54.3969 29.8281 57.0147 26.9662 59.1932ZM25.9931 52.0888C26.8544 50.6188 27.5661 49.0664 28.1176 47.455C28.4794 46.3539 28.7735 45.2318 28.9982 44.095C29.859 46.9741 31.0874 48.7617 32.0935 49.8246C31.4246 49.9171 30.7626 50.0543 30.1121 50.2353L30.0593 50.2529C28.6685 50.6461 27.3419 51.2379 26.1208 52.0097L25.9909 52.0932M25.5154 60.2188L20.1415 63.8643C20.5025 62.3622 21.163 60.4955 22.5742 57.9041C23.3956 56.5166 24.4596 55.2871 25.7157 54.2739C25.1587 55.7212 24.9716 57.6515 25.5198 60.2144M18.9945 62.0372C18.5135 60.553 17.9005 59.1147 17.1628 57.7394C17.1254 57.6691 17.0902 57.5966 17.0506 57.5198L16.9339 57.3002C17.597 57.5238 18.2923 57.6381 18.9923 57.6384C19.6923 57.6381 20.3876 57.5238 21.0507 57.3002L20.9318 57.5198L20.8195 57.7394C20.0826 59.1147 19.4703 60.5531 18.9901 62.0372M12.4648 60.2144C13.013 57.6515 12.8237 55.7212 12.2667 54.2739C13.5234 55.2865 14.5875 56.5161 15.4082 57.9041C16.8216 60.4955 17.4821 62.3622 17.8431 63.8643L12.4648 60.2144ZM11.8572 52.0053C10.637 51.2331 9.31119 50.6413 7.92089 50.2485L7.86799 50.2309C7.21759 50.0498 6.55559 49.9126 5.88669 49.8202C6.89059 48.7573 8.12119 46.9653 8.96879 44.0906C9.19449 45.2272 9.48849 46.3493 9.84939 47.4506C10.4027 49.0613 11.1143 50.6134 11.9739 52.0844L11.844 52.001M11.003 59.1888C8.14099 57.0191 6.12219 54.3925 4.94219 51.3333C5.78339 51.4022 6.61619 51.5492 7.42989 51.7726C11.1923 53.0397 11.4169 56.5732 11.003 59.18M4.27299 49.1548C3.90899 47.6287 3.72429 46.0656 3.72259 44.4969C3.76879 41.1829 4.16289 38.5674 5.92409 35.853C6.54489 34.8999 7.13269 34.0478 7.65009 33.2967C8.14539 32.5786 8.60339 31.9176 9.01939 31.2697C8.57929 33.4109 8.35799 35.5911 8.35899 37.7768V37.8866C8.20489 40.6734 7.61049 44.5847 5.67749 47.4858C5.27579 48.1016 4.79709 48.6639 4.25319 49.1592M3.72039 26.2297C3.72039 24.8176 4.97529 23.9787 7.02269 22.7159C8.13189 22.0829 9.17929 21.3477 10.151 20.5198V21.7101C10.074 26.961 8.72659 28.9155 6.33359 32.3832C5.80739 33.143 5.21299 34.0039 4.57239 34.9746C4.25549 35.461 3.96739 35.9655 3.70939 36.4855L3.72039 26.2297ZM3.72039 20.8294C3.72009 20.3367 3.76949 19.8453 3.86789 19.3624C4.10389 18.205 4.61589 17.1213 5.36059 16.203C6.10539 15.2848 7.06099 14.559 8.14639 14.0872C9.23189 13.6154 10.4154 13.4114 11.5967 13.4924C12.7779 13.5735 13.9222 13.9373 14.9327 14.553C13.9972 14.5624 13.0846 14.8425 12.3057 15.3595C11.5268 15.8764 10.9152 16.6079 10.5451 17.465C10.1674 18.1846 9.65899 18.828 9.04589 19.3624H9.03259C8.14119 20.1109 7.18319 20.7769 6.17069 21.3521C5.30399 21.8499 4.48069 22.4192 3.70939 23.0541L3.72039 20.8294ZM3.72039 12.4842C3.71829 11.8882 3.89629 11.3053 4.23129 10.8116C4.56629 10.318 5.04269 9.93663 5.59829 9.71723L9.05909 8.34023C10.6642 8.64653 12.1829 9.29873 13.5092 10.2511C14.8356 11.2036 15.9374 12.4334 16.7379 13.8546C15.7775 13.081 14.6673 12.5135 13.4769 12.1874C12.2865 11.8613 11.0415 11.7838 9.81969 11.9596C8.59789 12.1354 7.42559 12.5608 6.37609 13.2092C5.32659 13.8576 4.42249 14.7151 3.72039 15.7279V12.4842ZM16.0775 5.54673C16.7511 5.27613 17.4596 5.10163 18.1821 5.02853V13.1365C17.7692 12.3935 17.2824 11.6938 16.7291 11.048C15.3231 9.40793 13.5257 8.14743 11.5027 7.38273L16.0775 5.54673ZM25.205 38.227C26.4136 35.6905 27.063 33.6305 27.4065 31.8363C27.7882 33.7898 27.9792 35.7756 27.9767 37.7658C27.9979 40.8813 27.5238 43.9804 26.5721 46.9477C26.2362 47.9477 25.8256 48.9211 25.3437 49.8598C25.2472 49.3955 25.0995 48.9433 24.9034 48.5113V48.496L24.5929 47.8371C22.966 44.4332 23.6617 41.5299 25.2028 38.2204M14.5122 49.1746L17.6119 42.6412L18.9791 39.7599L20.344 42.6412L23.4438 49.1746C23.722 49.7965 23.8653 50.47 23.8642 51.1511C23.8653 51.8776 23.7035 52.5953 23.3907 53.2514C23.0779 53.9076 22.6221 54.4858 22.0565 54.9436C21.4909 55.4014 20.8299 55.7274 20.1218 55.8976C19.4137 56.0678 18.6765 56.078 17.9639 55.9274C17.2514 55.7768 16.5816 55.4692 16.0035 55.0272C15.4254 54.5851 14.9537 54.0198 14.6229 53.3725C14.292 52.7252 14.1104 52.0124 14.0912 51.286C14.0721 50.5597 14.2159 49.8383 14.5122 49.1746ZM12.751 38.2204C14.2921 41.5299 14.9899 44.4332 13.363 47.8371L13.0504 48.496V48.5113C12.8533 48.9429 12.7056 49.3952 12.6101 49.8598C12.1273 48.9215 11.7166 47.948 11.3817 46.9477C10.4282 43.9807 9.95329 40.8815 9.97489 37.7658C9.97349 35.7756 10.1644 33.7899 10.5451 31.8363C10.8951 33.6305 11.5424 35.6905 12.7466 38.227M17.6274 38.1457C17.6288 38.5589 17.5472 38.9681 17.3874 39.3492L15.8243 42.6434C15.6042 40.8338 14.9547 39.145 14.2062 37.5396C12.0795 33.0771 11.7845 30.1783 11.7537 27.5561C12.5445 27.7403 13.2497 28.1857 13.7548 28.8199C14.2599 29.4542 14.5354 30.2401 14.5364 31.0501V35.0536C15.3539 35.0536 16.1378 35.3775 16.7158 35.9541C17.2938 36.5307 17.6185 37.3127 17.6185 38.1282M21.6957 33.5295C20.5902 33.7597 19.6137 34.4003 18.9637 35.3215C18.3137 34.4003 17.3371 33.7597 16.2316 33.5295C16.3885 32.9257 16.7419 32.391 17.2364 32.0093C17.7308 31.6276 18.3384 31.4204 18.9637 31.4204C19.5889 31.4204 20.1965 31.6276 20.691 32.0093C21.1855 32.391 21.5389 32.9257 21.6957 33.5295ZM26.1824 27.5429C26.1428 30.1651 25.8544 33.0639 23.7299 37.5264C22.9814 39.1318 22.3298 40.8206 22.1118 42.6302L20.5466 39.336C20.3513 38.8647 20.2756 38.3527 20.3263 37.8452C20.3769 37.3378 20.5524 36.8507 20.837 36.4271C21.1216 36.0035 21.5066 35.6565 21.9579 35.4169C22.4092 35.1773 22.9127 35.0525 23.4239 35.0536V31.0545C23.4251 30.2442 23.7009 29.458 24.2064 28.8237C24.712 28.1894 25.4177 27.7443 26.2089 27.5605M21.8168 30.6351C21.219 30.2515 20.5414 30.0089 19.8355 29.9257L19.7892 29.9147V29.3877C19.7892 29.3679 19.7892 29.3503 19.7892 29.3328C19.787 29.2947 19.787 29.2566 19.7892 29.2186C19.8377 28.7376 20.0634 28.2917 20.4225 27.9672C20.7816 27.6426 21.2486 27.4625 21.7332 27.4617V24.2532C21.7447 23.9892 21.8105 23.7304 21.9263 23.4928C22.0422 23.2552 22.2058 23.0438 22.4068 22.8718C23.4482 21.9692 25.489 21.8989 26.1956 21.9495V25.6104C24.9873 25.8001 23.8842 26.4076 23.0794 27.3265C22.2745 28.2454 21.819 29.4173 21.7926 30.6372M18.1491 29.2273C18.1491 29.2647 18.1491 29.302 18.1601 29.3415C18.1711 29.3811 18.1601 29.3767 18.1601 29.3965V29.9169L18.1139 29.9279C17.4078 30.0104 16.73 30.253 16.1325 30.6372C16.108 29.424 15.6591 28.2575 14.8635 27.3395C14.0679 26.4216 12.9756 25.8099 11.7757 25.6104V21.9495C12.4802 21.8989 14.521 21.9692 15.5645 22.8718C15.7656 23.0438 15.9292 23.2552 16.045 23.4928C16.1609 23.7304 16.2267 23.9892 16.2382 24.2532V27.4727C16.7226 27.474 17.1894 27.6543 17.5484 27.9787C17.9074 28.3032 18.1332 28.7488 18.1821 29.2295M18.9989 19.1977H19.8069C19.8597 18.3697 20.2325 17.5943 20.8468 17.0349C21.4611 16.4754 22.269 16.1755 23.1005 16.1983C23.932 16.2211 24.7222 16.5647 25.3048 17.1569C25.8874 17.7491 26.217 18.5437 26.2243 19.3734V20.0564C25.4537 20.0894 24.9034 20.1377 24.4983 20.1838L24.2781 20.2101C24.0324 20.2358 23.7889 20.2791 23.5494 20.3397C22.7365 20.5021 21.975 20.8585 21.3303 21.3785C20.9782 21.679 20.6917 22.0485 20.4887 22.4641C20.2857 22.8796 20.1705 23.3324 20.1503 23.7942V26.6799L19.0011 27.4573L17.8497 26.6799V23.781C17.8294 23.3192 17.7142 22.8664 17.5113 22.4509C17.3083 22.0353 17.0218 21.6658 16.6697 21.3653C16.0197 20.8484 15.2537 20.4965 14.4374 20.3397C14.198 20.2788 13.9544 20.2355 13.7087 20.2101L13.4885 20.1838C13.0856 20.1377 12.5331 20.0894 11.7625 20.0564V19.3734C11.7697 18.5437 12.0993 17.7491 12.682 17.1569C13.2646 16.5647 14.0548 16.2211 14.8863 16.1983C15.7178 16.1755 16.5257 16.4754 17.14 17.0349C17.7543 17.5943 18.1271 18.3697 18.1799 19.1977H18.9989ZM19.8069 5.04383C20.5257 5.11483 21.2312 5.28553 21.9027 5.55113L26.4774 7.38273C23.6399 8.45393 21.2738 10.4921 19.798 13.1365L19.8069 5.04383ZM35.8779 12.5106C35.8814 11.5929 35.6074 10.6954 35.0918 9.93533C34.5761 9.17533 33.8427 8.58803 32.9873 8.25023L22.5103 4.07763C21.3944 3.63193 20.2031 3.40383 19.0011 3.40553C17.799 3.40363 16.6078 3.63173 15.4919 4.07763L5.01489 8.25023C4.15919 8.58793 3.42549 9.17513 2.90949 9.93513C2.39349 10.6951 2.11909 11.5927 2.12209 12.5106V44.3475C2.12209 44.3915 2.12209 44.4354 2.12209 44.4793C2.12209 44.5232 2.12209 44.5606 2.12209 44.6023C2.15949 48.1666 2.97849 51.4102 4.56139 54.2651C6.06939 56.9685 8.2731 59.3162 11.1109 61.2444L18.9967 66.5963L26.8825 61.2444C29.7203 59.3162 31.924 56.9685 33.432 54.2651C35.0171 51.4234 35.8361 48.1753 35.8735 44.6023V12.4886L35.8779 12.5106Z"></path>
</g>
</g>
<defs>
<clipPath id="clip0_529_2189">
<rect fill="white" height="70" width="264"></rect>
</clipPath>
</defs>
</svg>
