<svg width="133" height="48" viewBox="0 0 133 48" fill="none" xmlns="http://www.w3.org/2000/svg">
<g clip-path="url(#clip0_31_468)">
<path d="M22.1667 10.4451C22.1701 12.9191 21.24 15.312 19.5453 17.1888L21.897 47.2889H0.855694L3.13654 17.7147C1.12591 15.7792 -0.00113778 13.1676 8.61921e-07 10.4465C8.61921e-07 4.67443 4.96091 0 11.0833 0C17.2073 0 22.1667 4.67444 22.1667 10.4451Z" fill="#1CC691"/>
<path d="M10.872 12.9709C12.3158 12.9709 13.4862 11.8501 13.4862 10.4675C13.4862 9.08497 12.3158 7.96418 10.872 7.96418C9.42822 7.96418 8.25781 9.08497 8.25781 10.4675C8.25781 11.8501 9.42822 12.9709 10.872 12.9709Z" fill="white"/>
<path d="M12.9367 21.9312V38.7974H9.35754V25.3548L12.9367 21.9312Z" fill="white"/>
<path d="M52.5202 32.7801C51.1251 34.2859 49.7567 35.2332 49.0237 35.6218C48.3083 36.0064 47.5085 36.2069 46.6962 36.2056C45.7845 36.2056 44.9938 35.944 44.3244 35.4179C43.662 34.9029 43.1747 34.1958 42.9294 33.3933C42.6693 32.5658 42.5393 31.3983 42.5393 29.8866V23.0563C42.5393 22.8849 42.5393 22.1356 42.0723 21.9036C41.9506 21.8569 41.8226 21.829 41.6925 21.8209C41.5535 21.8058 41.4479 21.6888 41.4472 21.549L41.4427 20.7583C41.4427 20.6061 41.5639 20.482 41.7161 20.4805H44.7101C45.1416 20.4805 45.4904 20.8308 45.4904 21.2608V25.3232H45.4874V30.3476C45.4874 31.8579 45.7519 32.8495 46.278 33.3209C46.8056 33.7938 47.4425 34.0303 48.1888 34.0303C48.6972 34.0303 49.275 33.8692 49.9208 33.5515C50.5651 33.2323 51.6365 32.6264 52.5246 31.7308L52.5261 30.9654H52.5276L52.5379 23.7538V23.0548C52.5379 22.8849 52.5379 22.1356 52.0754 21.9036C51.9577 21.8573 51.8336 21.8294 51.7074 21.8209C51.5695 21.8044 51.4656 21.6878 51.465 21.549L51.4591 20.7583C51.4591 20.6061 51.5803 20.482 51.7325 20.4805H54.6836C55.1092 20.4805 55.455 20.8263 55.455 21.2519V23.8691C55.4571 23.8867 55.4581 23.9045 55.458 23.9223V29.3206C55.458 30.5723 55.458 31.722 55.455 32.7727H55.4521L55.455 33.1791C55.455 33.3505 55.4343 34.1721 55.8984 34.4041C56.0166 34.4505 56.1412 34.4784 56.2678 34.4869C56.4067 34.5017 56.5116 34.6199 56.5131 34.7588L56.5176 35.5524C56.5183 35.6255 56.4899 35.696 56.4386 35.7481C56.3873 35.8003 56.3173 35.8298 56.2442 35.8302H53.2842C52.8582 35.8302 52.5128 35.4848 52.5128 35.0588V35.0558L52.5187 33.5855H52.5157L52.5202 32.7801ZM58.4756 17.952L58.4741 15.9186C58.4741 15.7546 58.4741 15.0334 58.0234 14.8118C57.9662 14.7844 57.9063 14.7631 57.8446 14.7482C57.7224 14.7178 57.6366 14.6082 57.6362 14.4822L57.6318 13.7197C57.631 13.6467 57.6595 13.5764 57.7108 13.5245C57.7622 13.4726 57.8322 13.4433 57.9052 13.4433H60.5637C60.9775 13.4433 61.3144 13.7788 61.3144 14.1941L61.3085 18.1028V23.1213C62.8306 21.0303 64.471 19.9855 66.2339 19.9855C67.8477 19.9855 69.2545 20.6652 70.4574 22.0278C71.6574 23.3903 72.2588 25.2508 72.2588 27.6138C72.2588 30.3698 71.3323 32.5909 69.4777 34.2741C67.8876 35.7208 66.1143 36.4435 64.1577 36.4435C63.2415 36.4435 62.3119 36.2809 61.3691 35.9514C60.5051 35.6439 59.6779 35.2415 58.9027 34.7514C58.6376 34.586 58.4767 34.2955 58.4771 33.983V19.0249C58.4771 18.7441 58.4771 18.388 58.4741 17.9535L58.4756 17.952ZM61.573 33.7406C62.074 34.184 62.5897 34.5298 63.1188 34.7751C63.7424 35.0618 64.3808 35.2066 65.0325 35.2066C66.0743 35.2066 67.0438 34.6406 67.9423 33.5116C68.8407 32.3811 69.29 30.7378 69.29 28.5787C69.29 26.5911 68.8407 25.0616 67.9423 23.9947C67.0438 22.9262 66.0226 22.3928 64.8788 22.3928C64.2729 22.3928 63.6656 22.545 63.0597 22.8509C62.6577 23.0489 62.1582 23.4213 61.5627 23.9681C61.4006 24.1171 61.3084 24.3272 61.3085 24.5474V33.151C61.3085 33.3756 61.4046 33.5899 61.573 33.7406ZM92.4497 31.1028V24.3434C93.7975 22.8982 95.7378 22.1755 97.0959 22.1755C97.9751 22.1755 98.6002 22.4888 98.9712 23.1184C99.3406 23.7464 99.5268 24.7543 99.5268 26.1448V31.1028H99.5224V35.0529C99.5224 35.4667 99.8578 35.8021 100.272 35.8021H102.355C102.528 35.8021 102.747 35.8006 103.013 35.7962C103.164 35.7938 103.285 35.6696 103.283 35.5184L103.279 34.7573C103.278 34.6215 103.178 34.5066 103.044 34.4869C102.961 34.4769 102.88 34.4545 102.803 34.4204C102.355 34.1973 102.355 33.4702 102.355 33.3032V31.252H102.352V25.8759C102.352 24.4971 102.227 23.4745 101.975 22.808C101.61 21.8519 101.118 21.1647 100.504 20.748C99.8874 20.3313 99.1515 20.1229 98.2943 20.1229C96.7279 20.1229 94.4965 21.0761 92.7793 22.9824C92.7743 22.9883 92.7694 22.9942 92.7645 23.0001C92.7146 23.0561 92.6352 23.0752 92.5652 23.0483C92.4953 23.0214 92.4493 22.9539 92.4497 22.879V22.2775V22.2805V21.1795C92.4497 20.9828 92.3716 20.7941 92.2324 20.655C92.0933 20.5158 91.9046 20.4377 91.7079 20.4377H89.0952C89.022 20.4377 88.9519 20.4668 88.9003 20.5187C88.8487 20.5706 88.8199 20.6409 88.8203 20.714L88.8247 21.478C88.8267 21.6024 88.9103 21.7107 89.0302 21.744C89.0881 21.758 89.1446 21.7778 89.1986 21.8031C89.642 22.0248 89.642 22.7445 89.642 22.91V22.9455C89.6386 23.109 89.6386 23.2726 89.642 23.4361V24.939H89.6449C89.636 25.4961 89.6242 26.1123 89.6242 26.7271V32.3973C89.6242 32.4008 89.6242 32.4042 89.6242 32.4077V33.2958C89.6242 33.4613 89.6242 34.1869 89.1765 34.4101C89.0702 34.4529 88.9581 34.4793 88.844 34.4884C88.7067 34.5055 88.6035 34.622 88.6031 34.7603L88.5972 35.511C88.5972 35.6632 88.7183 35.7873 88.8706 35.7888H91.702C92.1158 35.7888 92.4497 35.4534 92.4497 35.0411V31.1013V31.1028ZM132.1 32.0382V33.0623C132.102 33.1333 132.104 33.2042 132.107 33.2751C132.14 33.7465 132.288 34.0465 132.548 34.1766C132.614 34.2076 132.683 34.2305 132.755 34.2445C132.88 34.2715 132.971 34.382 132.972 34.5105L132.976 35.279C132.977 35.3519 132.948 35.422 132.897 35.4738C132.846 35.5256 132.776 35.5549 132.703 35.5553H130.022C129.609 35.5553 129.274 35.2206 129.274 34.8076V33.3461C127.661 34.6007 126.648 35.3263 126.236 35.5213C125.618 35.809 124.944 35.9564 124.262 35.9529C123.174 35.9529 122.279 35.5775 121.575 34.8297C120.87 34.082 120.519 33.0993 120.519 31.8786C120.519 31.1072 120.69 30.4407 121.034 29.8762C121.503 29.093 122.208 28.2004 123.48 27.667C124.752 27.135 125.842 27.0123 129.274 26.232V24.8414C129.261 23.3637 129.025 21.8593 126.579 22.0071C124.884 22.105 123.249 22.6679 121.853 23.6341C121.769 23.6917 121.66 23.6979 121.569 23.6502C121.479 23.6024 121.423 23.5086 121.423 23.4065V22.5051C121.423 22.0292 121.515 21.7189 121.696 21.5711C122.707 20.7569 125.205 19.783 127.64 19.9485C130.341 20.1303 131.314 21.2578 131.8 22.978C131.948 23.5041 132.109 23.8883 132.109 25.4193V30.1348C132.109 30.7984 132.106 31.4323 132.1 32.0367V32.0382ZM129.276 27.4157C127.151 27.8532 125.927 28.1251 125.607 28.2329C124.421 28.629 123.482 29.0827 123.405 31.0658C123.372 31.8934 123.652 32.582 124.144 33.1288C124.636 33.6756 125.202 33.949 125.843 33.949C126.64 33.949 127.664 33.3461 128.921 32.3825C129.145 32.2106 129.276 31.9448 129.276 31.6629V27.4157ZM117.99 33.2249V33.2323C117.99 33.3933 117.99 34.0968 118.423 34.3125C118.472 34.3376 118.53 34.3569 118.598 34.3746C118.719 34.4041 118.804 34.5135 118.804 34.6406L118.81 35.3736C118.811 35.4465 118.782 35.5165 118.731 35.5684C118.68 35.6202 118.61 35.6495 118.537 35.6499H115.974C115.575 35.6499 115.25 35.3257 115.25 34.9258V34.2135L115.242 34.2165C114.498 35.01 113.771 35.579 113.06 35.9248C112.349 36.2706 111.583 36.4435 110.761 36.4435C109.095 36.4435 107.643 35.7327 106.398 34.3096C105.154 32.8879 104.532 31.0585 104.532 28.827C104.532 26.5941 105.221 24.5503 106.598 22.6972C107.974 20.8441 109.746 19.919 111.911 19.919C113.255 19.919 114.364 20.3549 115.242 21.2268V15.7841C115.242 15.6186 115.242 14.8975 114.807 14.6743C114.758 14.6499 114.707 14.6301 114.655 14.6152C114.538 14.5811 114.457 14.4741 114.457 14.3522L114.454 13.5778C114.454 13.4256 114.575 13.3015 114.727 13.3H117.262C117.664 13.3 117.989 13.6251 117.989 14.0271V33.1791L117.99 33.2249ZM113.316 22.347C112.768 22.0233 112.231 21.8622 111.71 21.8622C110.733 21.8622 109.842 22.2819 109.045 23.1006C108.166 24.0021 107.579 25.2168 107.579 27.4837C107.579 29.7743 108.067 31.5269 109.045 32.7446C110.021 33.9638 111.11 34.5741 112.31 34.5741C113.165 34.5741 113.997 34.2046 114.806 33.4628C115.083 33.2083 115.24 32.8491 115.24 32.4727V25.7119C115.24 24.3289 114.508 23.0478 113.316 22.347ZM75.4228 34.4027C74.1814 32.9899 73.5342 30.7319 73.5342 28.4916C73.5342 26.1271 74.2686 23.9636 75.6031 22.4016C76.9907 20.7731 78.8896 19.9131 81.093 19.9131C82.9609 19.9131 84.384 20.5515 85.3239 21.809C86.2017 22.9839 86.6465 24.6641 86.6465 26.8039C86.6465 27.0625 86.6317 27.4246 86.5992 27.8871C86.5798 28.1765 86.3395 28.4013 86.0495 28.4014H76.4823C76.4396 28.4013 76.3986 28.4183 76.3685 28.4487C76.3394 28.4787 76.3234 28.5192 76.3242 28.561C76.3567 30.3196 76.9153 31.8047 77.938 32.8584C78.9428 33.8943 80.3231 34.4411 81.9279 34.4411C83.1249 34.4411 84.6929 34.1278 85.9032 33.7598C86.015 33.7254 86.1368 33.7542 86.2212 33.8353C86.3056 33.9163 86.3395 34.0368 86.3096 34.15L86.147 34.7765C86.0877 35.0056 85.9311 35.1973 85.7185 35.3012C84.5215 35.8834 82.7319 36.4435 80.892 36.4435C78.6576 36.4435 76.738 35.8982 75.4228 34.4027ZM76.2163 26.365C76.2128 26.4073 76.2292 26.4489 76.2607 26.4773C76.2913 26.5078 76.3328 26.5248 76.3759 26.5246H84.0604C84.1417 26.5246 84.2111 26.4655 84.2185 26.3916C84.3072 25.5848 84.3412 24.1262 83.1427 22.8849C82.5516 22.2731 81.8393 21.9627 80.4679 21.9627C78.0739 21.9627 76.4823 24.3287 76.2163 26.3665V26.365Z" fill="#03216C"/>
<path d="M99.5328 31.1944V33.2663C99.5328 33.4347 99.5328 34.1677 99.0865 34.3953C99.0697 34.4033 99.0524 34.4102 99.0348 34.416C98.7246 34.5242 98.5163 34.816 98.5146 35.1445C98.5138 35.3155 98.5812 35.4798 98.7018 35.601C98.8225 35.7222 98.9864 35.7903 99.1574 35.7903H101.602C101.799 35.7907 101.989 35.7126 102.128 35.5731C102.268 35.4337 102.346 35.2444 102.346 35.047V31.0422L99.5328 31.1944ZM92.4527 31.1944V33.2663C92.4527 33.4347 92.4527 34.1677 92.8975 34.3953C92.9148 34.4033 92.9326 34.4103 92.9507 34.416C93.2611 34.5253 93.468 34.815 93.4695 35.1445C93.4702 35.3153 93.4031 35.4793 93.2827 35.6005C93.1624 35.7216 92.9988 35.7899 92.8281 35.7903H90.3838C89.9731 35.7903 89.6399 35.4577 89.639 35.047V31.0422L92.4527 31.1944ZM38.0158 21.7041V33.7185C38.0158 34.0347 38.1961 34.3229 38.4799 34.4603C38.7627 34.5985 38.9422 34.8858 38.9424 35.2007V35.4282C38.9424 35.6854 38.7355 35.8923 38.4799 35.8923H34.447C34.194 35.8923 33.9889 35.6872 33.9889 35.4342V35.1977C33.9889 34.8844 34.1662 34.5977 34.447 34.4603C34.7275 34.3223 34.9051 34.0369 34.9051 33.7244V22.1179C34.9051 21.9544 34.773 21.8217 34.6096 21.8209C34.5305 21.8213 34.4546 21.7901 34.3986 21.7344C34.3425 21.6786 34.311 21.6029 34.311 21.5238V21.1426C34.311 20.7671 34.6154 20.4628 34.9908 20.4628H36.7745C37.4601 20.4628 38.0158 21.0186 38.0158 21.7041Z" fill="#03216C"/>
<path d="M36.4656 17.4333C37.5299 17.4333 38.3926 16.5699 38.3926 15.5048C38.3926 14.4398 37.5299 13.5763 36.4656 13.5763C35.4013 13.5763 34.5386 14.4398 34.5386 15.5048C34.5386 16.5699 35.4013 17.4333 36.4656 17.4333Z" fill="#03216C"/>
</g>
<defs>
<clipPath id="clip0_31_468">
<rect width="133" height="47.2889" fill="white"/>
</clipPath>
</defs>
</svg>
