<svg width="214" height="37" viewBox="0 0 214 37" fill="none" xmlns="http://www.w3.org/2000/svg">
<g clip-path="url(#clip0)">
<path d="M30.1102 19.3492C29.7569 19.146 29.238 18.8914 29.0062 18.8101C27.9766 18.4471 27.5212 18.122 26.9498 18.6205C26.4917 19.0214 25.97 19.4143 25.36 19.5578C24.8383 19.6771 23.6487 19.4603 23.7674 19.3899C23.8971 19.3113 24.0544 19.2869 24.1897 19.2192C24.3801 19.119 24.5706 19.016 24.7583 18.913C24.946 18.8101 25.1337 18.7044 25.3186 18.5988C25.4759 18.5094 25.6691 18.4389 25.7989 18.3116C25.8817 18.2303 25.9314 18.1274 25.9866 18.0271C26.039 17.9323 26.1108 17.5747 26.188 17.5042C26.8063 16.9434 27.5157 16.6237 28.0788 16.3853C28.4182 16.2417 28.7605 16.1063 29.1055 15.9735C29.2684 15.9112 29.4312 15.8462 29.5968 15.7866C29.7293 15.7405 29.8756 15.7162 29.9998 15.6484C30.0992 15.5942 30.0854 15.5807 30.0274 15.494C29.9833 15.4263 29.9391 15.3585 29.8839 15.2989C29.5499 14.9278 29.0558 15.047 28.6253 15.1851C28.3989 15.2556 28.2112 15.41 28.0097 15.5292C27.5516 15.8028 27.0658 16.0304 26.5883 16.2688C26.6821 16.0982 26.798 15.9383 26.9278 15.7893C27.1044 15.5861 27.3197 15.4669 27.4632 15.2312C27.6371 14.9386 27.7889 14.6379 27.9683 14.348C28.0373 14.2396 28.1063 14.1313 28.1726 14.0202C28.294 13.8197 28.2306 13.6544 28.1008 13.5081C27.9573 13.351 27.9794 13.2345 27.9904 13.0313C28.0042 12.7902 28.156 12.2538 27.7862 12.1969C27.6758 12.1806 27.5654 12.2294 27.4964 12.3106C27.0961 12.7793 27.3584 12.9663 27.3556 13.3483C27.3501 14.6379 25.9258 15.0172 25.4897 15.5319C24.9156 16.2092 25.3821 16.5506 24.7279 17.152C23.7232 18.0813 22.2245 18.2357 20.8582 18.3685C20.7947 18.3739 20.734 18.3766 20.6705 18.3712C20.0025 18.2981 20.1875 16.8676 20.5215 16.472C20.8058 16.1361 21.3854 16.4639 21.7828 16.2526C22.1831 16.0413 22.3873 15.8868 22.5088 15.6999C23.047 15.3342 23.7094 14.8898 23.8254 14.8275C24.4574 14.4997 24.877 14.3317 24.9267 14.1367C24.9763 13.9416 24.6534 13.7167 24.5402 13.7005C24.3719 13.6761 23.254 14.1529 22.6937 14.3995C22.575 13.8766 22.3073 13.2508 22.495 12.8877C22.6992 12.4922 23.2126 12.3134 23.392 11.907C23.5907 11.4518 23.2733 11.2838 23.5852 10.723C23.7591 10.4115 24.0296 10.1622 24.3525 9.99967C25.5063 9.4199 25.7795 9.26547 25.0702 9.12188C24.6341 9.03248 24.0241 9.45782 23.2816 9.78022C23.1077 9.06228 23.3313 8.84283 22.6965 8.01109C22.4563 7.69682 22.161 7.52614 22.0865 7.56678C21.7359 7.76726 21.8215 7.97317 22.0589 8.26576C22.6247 8.95662 22.6164 10.4359 22.5695 11.1565C22.5419 11.5737 22.1555 11.5385 21.8518 11.8338C21.5289 12.1454 21.09 12.4597 21.1204 12.904C21.1314 13.0719 21.2143 13.2264 21.2557 13.3889C21.424 14.0391 20.8527 14.7435 20.1709 14.8113C18.5949 14.9657 18.824 14.3805 18.617 13.7411C18.4072 13.1017 18.6142 12.373 19.0503 11.8582C19.2463 11.6279 19.6216 11.2893 19.6134 10.9642C19.6078 10.7935 19.365 10.7583 19.1938 10.7312C19.0337 10.7068 18.9289 10.8097 18.8405 10.9127C18.6197 11.1619 18.421 11.4301 18.2443 11.7092C17.1955 11.3841 18.1643 10.7203 17.6785 10.6851C17.3694 10.7014 17.0713 11.3516 17.1541 11.6415C17.2672 12.0451 17.7944 12.0939 17.7861 12.5545C17.7834 12.7279 17.6895 12.8904 17.5295 12.9663C17.1844 13.1261 16.8698 12.7685 16.6904 12.4569C15.7519 10.8287 15.1557 10.5063 14.8908 8.31995C14.8355 7.86751 14.1814 7.34733 13.9992 7.4259C13.5769 7.60742 13.8115 8.03006 13.9137 8.31724C14.2449 9.2438 14.3939 9.70437 14.7251 10.6309C14.0296 10.5171 13.5604 9.89943 13.0773 9.39551C12.5943 8.8916 11.5675 8.3064 11.2225 8.72904C10.9327 9.17336 13.8861 10.9614 15.4124 12.6032C15.7878 13.0069 16.246 13.7492 15.8596 14.1421C15.3131 13.6571 14.6175 13.1884 13.8888 13.0747C13.6432 13.0367 13.1822 13.183 13.2319 13.4214C13.265 13.5813 13.9633 13.7818 14.289 13.901C14.7362 14.0662 14.9901 14.9711 15.3876 15.2312C15.8927 15.5617 16.5054 14.982 17.074 15.1851C17.9131 15.4859 18.1422 16.5641 17.9821 17.4257C17.822 18.2872 17.3086 18.7369 17.1237 19.9967C16.2791 19.9344 15.4566 19.8559 14.9598 19.0837C14.4491 18.2899 15.0398 17.935 14.5706 17.3146C14.2062 16.8324 14.3746 16.4802 14.2449 16.2417C14.0793 15.9329 13.6211 16.6102 13.7011 16.9001C14.0572 18.1951 14.2504 18.2141 14.082 18.3902C13.7563 17.5557 12.7378 17.2469 11.8518 17.0464C11.1038 16.8757 11.0017 16.8324 10.1378 16.4856C9.79552 16.3501 8.83222 16.4016 8.61417 16.7294C8.432 17.0085 9.02543 17.3579 9.45326 17.339C10.0853 17.3119 11.1673 17.5991 11.7801 17.7562C12.3928 17.9133 12.8289 18.0542 13.1105 18.6123C13.2595 18.9103 13.3175 19.5308 13.4555 19.8342C13.7315 20.4465 15.4428 20.7716 16.0969 21.7198C16.1853 21.8471 16.257 21.9962 16.1742 22.156C16.0859 22.3186 15.8899 22.389 15.7078 22.3511C15.3627 22.2806 15.1778 21.9826 14.9487 21.7496C13.9854 20.7553 13.5052 21.0073 12.183 21.1617C10.9879 21.3026 9.49742 20.9233 8.61417 20.0807C8.58381 20.0509 8.54241 20.0374 8.50101 20.0428C8.02902 20.1051 8.39336 20.6524 8.6749 20.945C8.69422 20.9639 8.71354 20.9829 8.73286 21.0019L8.67766 20.9639C8.67766 20.9639 7.78061 20.991 7.16233 21.1319C7.16233 21.1319 6.65171 21.8038 7.65364 21.6765C8.65557 21.5518 10.1847 22.0178 10.1847 22.0178C11.2115 22.389 12.5087 21.6548 14.071 22.9444C14.623 23.3995 14.899 24.1202 15.44 24.5889C15.7243 24.8381 16.0804 25.0278 16.2708 25.3502C16.6821 26.0492 16.0721 26.7996 16.66 27.6937C15.7022 27.691 14.5402 26.2442 13.6625 25.9056C12.6937 25.5317 11.9484 24.9005 11.8215 25.3068C11.7193 25.6861 12.1168 26.0112 12.4784 26.1765C12.8427 26.3418 13.2788 26.5206 13.3672 26.9053C12.4673 27.3875 11.2667 27.2494 10.5021 26.5775C10.2178 26.3255 9.81208 25.9083 9.63819 26.3445C9.4505 26.9405 9.91972 27.4065 11.0762 27.672C11.6145 27.8996 11.5178 28.4793 13.2871 27.737C14.1317 27.3848 15.1364 28.1759 15.7381 28.6636C16.1356 28.986 16.5827 29.3192 16.8698 29.7581C17.2424 30.3352 17.132 30.8012 16.7401 31.3132C16.511 31.6112 16.6131 31.9472 16.7594 32.2669C16.9857 32.9821 16.384 32.4348 15.5421 33.058C15.3407 33.207 15.2358 33.5863 14.3912 33.7515C12.6385 34.0902 10.5573 34.0522 10.527 34.1687C10.4994 34.2798 11.275 34.4505 11.3578 34.4884C12.3349 34.93 13.1684 35.2551 14.209 35.5152C15.2496 35.7753 16.5662 36.2169 17.6371 36.2955C18.708 36.3741 19.9611 36.225 21.0293 36.1194C22.0975 36.011 23.1381 35.6371 24.1704 35.3391C24.1814 35.3364 25.026 35.0221 25.0371 35.0194C25.5367 34.8758 25.9148 34.7594 26.4089 34.5941C27.3169 34.2907 28.5839 33.2774 29.4036 32.787C27.3942 33.9872 24.8411 33.7244 23.4665 33.0498C22.0754 32.3671 21.0045 32.9902 21.3937 31.2997C21.6973 29.9748 20.0771 29.7635 21.3219 28.7503C21.838 28.3303 22.2051 27.7641 22.8041 27.4796C23.3975 27.2006 24.9819 26.9351 25.6084 26.7156C25.8485 26.6371 25.9452 26.4556 26.0997 26.274C26.2184 26.1332 26.4585 25.9435 26.7428 25.8514C26.9857 25.7728 27.2783 25.7972 27.5295 25.7972C27.811 25.7972 28.1036 25.7918 28.3851 25.7376C28.6832 25.678 28.9758 25.6076 29.2767 25.5615C29.2767 25.5615 29.7928 25.5127 29.7624 25.1389C29.7459 24.933 29.3843 24.9655 29.3843 24.9655C27.6647 25.1822 27.6426 24.8354 26.6324 24.9573C26.5358 24.9682 25.8817 25.0576 25.7851 25.2364C25.4262 25.9056 23.9026 25.6536 22.7489 25.9218C22.1223 26.0681 21.9788 26.3851 21.3385 26.3093C20.5297 26.2144 20.2261 25.9029 20.124 25.4613C20.0909 25.315 20.0467 25.017 20.3945 24.4426C20.6733 23.9793 21.1673 24.1392 21.7801 24.3803C22.0285 24.4778 22.2521 24.6485 22.5143 24.616C23.2568 24.5239 23.8778 23.9035 24.4602 23.3183C24.543 23.2343 25.0785 22.7493 25.0067 22.6139C24.9487 22.5028 24.8687 22.454 24.75 22.5028C24.4574 22.6247 23.7729 22.9796 23.5907 23.1367C23.2292 23.4456 22.7572 23.768 22.2935 23.6461C21.5565 23.451 21.7111 22.9986 21.0873 22.8577C20.8223 22.7981 20.5656 22.9227 20.2096 23.0446C20.193 22.2373 20.4276 21.4299 20.8692 20.7499C20.9631 20.6036 21.0735 20.46 21.2308 20.3815C21.5676 20.2162 22.3846 20.4194 22.7544 20.4952C25.1199 20.9829 24.8742 21.0344 25.9645 20.4871C26.6435 20.1458 26.9416 19.9913 27.3307 19.5876C27.4246 19.4901 27.5267 19.3492 27.6702 19.3303C27.7172 19.3221 27.7669 19.333 27.8138 19.3411C28.3879 19.4468 28.6694 19.4224 29.1994 19.6743C29.3015 19.7204 29.7128 19.845 29.8259 19.8802C30.0412 19.948 30.3752 20.0076 30.4276 19.9859C30.6954 19.8857 30.3228 19.4739 30.1102 19.3492Z" fill="#97C211"/>
<path d="M7.82489 13.2588C7.82489 13.2588 6.45309 15.3937 8.65293 16.033C8.65569 16.033 9.83151 14.3912 7.82489 13.2588Z" fill="#97C211"/>
<path d="M4.76953 16.2229C4.76953 16.2229 6.16893 18.5609 8.32184 16.529C8.32184 16.529 6.95281 14.5025 4.76953 16.2229Z" fill="#97C211"/>
<path d="M8.41596 17.231C8.41596 17.231 7.10489 17.2282 7.23462 18.675C7.23462 18.675 8.69473 18.759 8.41596 17.231Z" fill="#97C211"/>
<path d="M7.51873 20.6715C7.51873 20.6715 7.87202 18.729 5.60594 18.5366C5.60594 18.5366 5.09256 20.6796 7.51873 20.6715Z" fill="#97C211"/>
<path d="M5.41774 23.9064C5.41774 23.9064 7.14284 23.8333 6.88062 21.9341C6.88062 21.9341 4.95404 21.9151 5.41774 23.9064Z" fill="#97C211"/>
<path d="M7.40291 23.5976C7.40291 23.5976 8.56217 23.1722 7.95494 21.9341C7.95494 21.9341 6.63559 22.3405 7.40291 23.5976Z" fill="#97C211"/>
<path d="M10.4668 16.1633C10.4668 16.1633 11.3224 16.7403 11.8966 15.7325C11.8966 15.7352 10.9802 15.0417 10.4668 16.1633Z" fill="#97C211"/>
<path d="M11.148 9.50388C11.148 9.50388 9.15237 9.34674 9.17997 11.5683C9.17997 11.5683 11.3909 11.8609 11.148 9.50388Z" fill="#97C211"/>
<path d="M10.508 8.90243C10.508 8.90243 9.02302 7.15226 7.45801 9.01621C7.45525 9.01621 8.89881 10.8558 10.508 8.90243Z" fill="#97C211"/>
<path d="M10.8395 8.2986C10.8395 8.2986 11.0935 6.7435 9.28279 6.62158C9.28279 6.62158 8.90465 8.33924 10.8395 8.2986Z" fill="#97C211"/>
<path d="M9.6663 15.9843C9.6663 15.9843 11.0243 15.5861 10.3784 14.3154C10.3784 14.3154 8.98454 14.627 9.6663 15.9843Z" fill="#97C211"/>
<path d="M7.41895 24.8272C7.41895 24.8272 7.55419 26.3823 9.32621 26.0734C9.32621 26.0761 9.271 24.3341 7.41895 24.8272Z" fill="#97C211"/>
<path d="M6.79785 27.7834C6.79785 27.7834 8.51191 28.691 9.37859 26.7024C9.37859 26.6997 7.52101 25.5889 6.79785 27.7834Z" fill="#97C211"/>
<path d="M10.174 23.6216C10.174 23.6216 8.60075 24.5454 9.96703 25.9109C9.96703 25.9109 11.532 25.0087 10.174 23.6216Z" fill="#97C211"/>
<path d="M16.5859 9.60419C16.5859 9.60419 16.6053 10.6879 17.7452 10.398C17.7452 10.398 17.7342 9.32243 16.5859 9.60419Z" fill="#97C211"/>
<path d="M21.1983 8.70998C21.1983 8.70998 19.1917 8.02996 18.9736 10.2407C18.9736 10.238 20.9582 10.9288 21.1983 8.70998Z" fill="#97C211"/>
<path d="M17.9221 7.23096C17.9221 7.23096 16.3212 8.75355 18.3416 9.99438C18.3416 9.99438 19.9398 8.50159 17.9221 7.23096Z" fill="#97C211"/>
<path d="M14.082 3.8418C14.082 3.8418 12.1223 5.14494 13.9854 6.81112C13.9881 6.81112 15.9395 5.53507 14.082 3.8418Z" fill="#97C211"/>
<path d="M16.5496 6.64593C16.5496 6.64593 15.3572 5.45657 14.3994 6.96562C14.4022 6.96562 15.5725 8.15497 16.5496 6.64593Z" fill="#97C211"/>
<path d="M20.3123 4.37256C20.3123 4.37256 19.1502 6.56433 21.7531 7.19829C21.7531 7.19829 22.9234 5.03632 20.3123 4.37256Z" fill="#97C211"/>
<path d="M23.4334 5.22607C23.4334 5.22607 21.6393 5.73541 22.6247 7.43139C22.6247 7.43139 24.4077 6.94102 23.4334 5.22607Z" fill="#97C211"/>
<path d="M25.0259 6.03076C25.0259 6.03076 23.3201 7.23095 25.0121 8.66414C25.0121 8.66685 26.7123 7.49104 25.0259 6.03076Z" fill="#97C211"/>
<path d="M28.1862 7.27707C28.1862 7.27707 25.8373 6.56184 25.6689 9.13019C25.6689 9.13019 27.9902 9.85626 28.1862 7.27707Z" fill="#97C211"/>
<path d="M30.7948 11.2759C30.7948 11.2759 29.1305 10.1678 28.377 12.1347C28.377 12.1347 30.0165 13.2455 30.7948 11.2759Z" fill="#97C211"/>
<path d="M27.2844 12.1481C27.2844 12.1481 27.6543 10.379 25.6973 10.4467C25.6946 10.4467 25.3137 12.1942 27.2844 12.1481Z" fill="#97C211"/>
<path d="M27.9601 11.7256C27.9601 11.7256 29.7763 10.6446 28.1892 9.06787C28.1865 9.07058 26.3786 10.1245 27.9601 11.7256Z" fill="#97C211"/>
<path d="M32.7771 17.9732C32.7771 17.9732 31.0355 17.3095 30.7705 19.2439C30.7705 19.2466 32.4901 19.9157 32.7771 17.9732Z" fill="#97C211"/>
<path d="M30.5633 16.8975C30.5633 16.8975 29.0784 17.4854 30.0858 18.7479C30.0858 18.7479 31.5625 18.1789 30.5633 16.8975Z" fill="#97C211"/>
<path d="M29.0229 27.8918C29.0229 27.8918 30.425 27.0519 29.1885 25.8354C29.1885 25.8354 27.7919 26.6563 29.0229 27.8918Z" fill="#97C211"/>
<path d="M33.8722 21.2054C33.8722 21.2054 33.1325 18.8348 30.8057 20.0187C30.8057 20.0187 31.5178 22.373 33.8722 21.2054Z" fill="#97C211"/>
<path d="M9.71582 13.3513C9.71582 13.3513 11.1953 14.9226 12.8431 13.1264C12.8458 13.1264 11.2946 11.2868 9.71582 13.3513Z" fill="#97C211"/>
<path d="M13.1636 12.7144C13.1636 12.7144 13.7487 11.4059 12.3024 11.0591C12.3024 11.0591 11.6234 12.3378 13.1636 12.7144Z" fill="#97C211"/>
<path d="M28.9677 24.6134C28.9677 24.6134 29.0919 23.229 27.6483 23.3509C27.6483 23.3509 27.4303 24.7353 28.9677 24.6134Z" fill="#97C211"/>
<path d="M29.6081 24.5484C29.6081 24.5484 31.4822 23.5676 30.1463 21.8906C30.1463 21.8933 28.1977 22.7522 29.6081 24.5484Z" fill="#97C211"/>
<path d="M25.3877 22.5786C25.3877 22.5786 27.2287 23.5106 27.9049 21.7252C27.9049 21.7252 26.1191 20.6795 25.3877 22.5786Z" fill="#97C211"/>
<path d="M25.3129 22.9769C25.3129 22.9769 25.1556 24.1771 26.4142 24.1202C26.4142 24.1202 26.6544 22.9227 25.3129 22.9769Z" fill="#97C211"/>
<path d="M29.9941 25.0523C29.9941 25.0523 31.7165 26.4909 32.884 24.5348C32.884 24.5348 31.2528 22.977 29.9941 25.0523Z" fill="#97C211"/>
<path d="M29.6914 25.7324C29.6914 25.7324 29.8929 27.6045 31.7063 27.1873C31.7063 27.1873 31.629 25.3017 29.6914 25.7324Z" fill="#97C211"/>
<path d="M25.5807 27.3092C25.5807 27.3092 25.3516 30.1403 28.1614 30.013C28.1614 30.013 28.5782 27.1927 25.5807 27.3092Z" fill="#97C211"/>
<path d="M24.5958 27.5259C24.5958 27.5259 23.1991 28.6096 24.4329 29.7989C24.4329 29.7989 25.9041 28.8019 24.5958 27.5259Z" fill="#97C211"/>
<path d="M11.3438 6.35068C11.3438 6.35068 11.9896 8.05208 13.6209 7.11469C13.6209 7.11198 13.0882 5.3591 11.3438 6.35068Z" fill="#97C211"/>
<path d="M6.74614 21.1265C6.74614 21.1265 5.61448 19.6012 3.98047 21.0127C3.98047 21.01 5.14801 22.7764 6.74614 21.1265Z" fill="#97C211"/>
<path d="M33.6101 15.4048C33.6101 15.4048 32.1775 13.4216 30.4414 15.3723C30.4414 15.3723 31.8436 17.35 33.6101 15.4048Z" fill="#97C211"/>
<path d="M30.7174 13.1074C30.7174 13.1074 29.2876 13.4109 29.9639 14.7899C29.9639 14.7899 31.3853 14.5 30.7174 13.1074Z" fill="#97C211"/>
<path d="M9.8038 19.2761C9.8038 19.2761 10.4221 18.0244 9.03096 17.6343C9.03096 17.6343 8.32436 18.8507 9.8038 19.2761Z" fill="#97C211"/>
<path d="M32.1503 5.40763C28.5897 1.92085 23.8643 0 18.8215 0C13.7953 0.0081277 9.06712 1.93981 5.50653 5.44285C1.94869 8.94589 -0.00825428 13.5922 2.61706e-05 18.5257C0.00554647 23.4592 1.97629 28.1002 5.54517 31.5951C9.10576 35.0819 13.8311 37.0027 18.8739 37.0027C23.9002 36.9973 28.6283 35.0629 32.1889 31.5599C35.7467 28.0568 37.7037 23.4105 37.6982 18.477C37.6871 13.5407 35.7191 8.89983 32.1503 5.40763ZM36.5279 18.477C36.5417 28.046 28.62 35.8432 18.8712 35.854H18.8463C14.1403 35.854 9.71024 34.0524 6.36769 30.7823C3.01963 27.5041 1.17309 23.1504 1.16757 18.523C1.15929 13.8957 2.99479 9.5365 6.33457 6.2502C9.67159 2.9639 14.1072 1.15142 18.8491 1.14601C23.5551 1.14601 27.9852 2.94765 31.3277 6.21769C34.673 9.49315 36.5223 13.8469 36.5279 18.477Z" fill="#97C211"/>
<path d="M42.3154 23.9388L45.1391 22.7982C45.3764 23.8087 46.141 24.9222 47.303 24.9222C48.5975 24.9222 49.2821 23.9632 49.2821 22.7467V10.3872H52.6605V22.4866C52.6605 25.6998 50.9437 27.981 47.5928 27.981C44.7968 27.981 42.8702 25.9355 42.3154 23.9388Z" fill="white"/>
<path d="M69.6436 25.4153L71.7827 23.5215C71.7827 23.5215 73.3918 25.101 75.611 25.101C76.9055 25.101 77.7225 24.6865 77.7225 24.039C77.7225 22.6654 69.8285 22.8469 69.8285 18.5447C69.8285 16.2391 71.7026 14.6055 75.1611 14.6055C78.9094 14.6055 81.0761 17.1711 81.0761 17.1711L78.937 19.0622C78.937 19.0622 77.3002 17.4827 75.0838 17.4827C73.8169 17.4827 72.9723 17.8972 72.9723 18.5447C72.9723 19.9183 80.8912 19.7368 80.8912 24.039C80.8912 26.3446 78.9894 27.9782 75.531 27.9782C71.8075 27.9809 69.6436 25.4153 69.6436 25.4153Z" fill="white"/>
<path d="M92.1222 26.4256C92.1222 26.4256 90.698 27.9807 88.3988 27.9807C86.1272 27.9807 84.3855 26.8916 84.3855 24.1986V17.7967H82.7764V14.8166H84.3855V10.4899L87.6618 10.4141V14.8193H90.8802V17.7994H87.6674V23.1908C87.6674 24.2528 88.3988 24.9003 89.1358 24.9003C90.0328 24.9003 90.571 24.4289 90.8774 24.1905L92.1222 26.4256Z" fill="white"/>
<path d="M99.6191 19.0945C99.6191 14.1719 102.893 10.1812 108.358 10.1812C113.85 10.1812 117.124 14.1719 117.124 19.0945C117.124 23.9928 113.85 27.9835 108.358 27.9835C102.893 27.9808 99.6191 23.9901 99.6191 19.0945ZM113.481 19.0945C113.481 15.6999 111.474 13.2914 108.358 13.2914C105.297 13.2914 103.29 15.6999 103.29 19.0945C103.29 22.4621 105.297 24.8733 108.358 24.8733C111.474 24.8733 113.481 22.4621 113.481 19.0945Z" fill="white"/>
<path d="M131.22 20.5441V27.775H127.761V20.6227C127.761 18.8861 126.627 17.6696 125.015 17.6696C123.406 17.6696 122.244 18.9132 122.244 20.6498V27.775H118.865C118.865 27.775 118.879 20.9776 118.879 20.9749C118.882 19.1461 119.445 17.2145 120.844 15.9411C122.948 14.0284 126.66 14.1151 128.885 15.7894C130.383 16.9137 131.22 18.7045 131.22 20.5441Z" fill="white"/>
<path d="M146.652 23.6272C146.414 24.2232 144.435 27.9809 139.84 27.9294C137.198 27.9294 134.532 26.2714 133.505 23.6542C133.188 22.9038 133.03 22.0748 133.03 21.243C133.03 17.5368 136.066 14.5566 139.842 14.5566C143.511 14.5566 146.494 17.4068 146.627 20.9586C146.627 21.113 146.654 21.2186 146.627 21.3216L136.911 23.0582C137.386 24.1202 138.468 24.9249 139.842 24.9249C142.114 24.9249 143.447 23.405 143.828 22.7494L146.652 23.6272ZM136.436 20.544L142.798 19.4306C142.164 18.187 140.792 17.3824 139.42 17.5124C138.021 17.6154 136.806 18.7316 136.516 20.1295L136.436 20.544Z" fill="white"/>
<path d="M155.843 10.3872H160.568C166.298 10.3872 169.677 14.275 169.677 19.0947C169.677 23.89 166.298 27.7751 160.568 27.7751H155.843V10.3872ZM160.568 24.6649C163.894 24.6649 166.006 22.3322 166.006 19.0947C166.006 15.8301 163.894 13.4974 160.568 13.4974H159.221V24.6649H160.568Z" fill="#97C211"/>
<path d="M172.078 14.8164H175.457V27.772H172.078V14.8164Z" fill="#97C211"/>
<path d="M198.893 20.6498V27.8807H195.434V20.7283C195.434 18.9917 194.3 17.7753 192.688 17.7753C191.076 17.7753 189.917 19.0188 189.917 20.7554V27.8807H186.486V20.7283C186.486 18.9917 185.324 17.7753 183.715 17.7753C182.106 17.7753 180.944 19.0188 180.944 20.7554V27.8807H177.761C177.761 26.6832 177.761 25.4831 177.761 24.2856C177.761 22.5517 177.598 19.2139 178.573 17.3337C180.124 14.3373 184.662 13.7196 187.458 15.5727C187.604 15.6702 188.876 16.6591 188.758 16.8189C189.707 15.5483 191.319 14.7193 193.483 14.7193C196.701 14.7139 198.893 17.2795 198.893 20.6498Z" fill="#97C211"/>
<path d="M213.999 23.6272C213.762 24.2232 211.783 27.9809 207.187 27.9294C204.546 27.9294 201.879 26.2714 200.853 23.6542C200.535 22.9038 200.378 22.0748 200.378 21.243C200.378 17.5368 203.414 14.5566 207.19 14.5566C210.858 14.5566 213.842 17.4068 213.974 20.9586C213.974 21.113 214.002 21.2186 213.974 21.3216L204.259 23.0582C204.733 24.1202 205.815 24.9249 207.19 24.9249C209.462 24.9249 210.991 23.2912 211.176 22.7494L213.999 23.6272ZM203.784 20.544L210.146 19.4306C209.511 18.187 208.139 17.3824 206.768 17.5124C205.368 17.6154 204.154 18.7316 203.864 20.1295L203.784 20.544Z" fill="#97C211"/>
<path d="M67.7116 14.8218C66.5578 14.8218 65.4041 14.8218 64.2503 14.8218C64.2558 16.9486 64.2614 19.0753 64.2696 21.2021C64.2724 21.9336 64.2696 22.6867 63.9716 23.3559C63.5575 24.2852 62.5611 24.9327 61.5288 24.9408C61.4985 24.9408 61.3715 24.9381 61.3411 24.9354C60.3088 24.9273 59.3097 24.2798 58.8984 23.3505C58.6003 22.6813 58.5975 21.9254 58.6003 21.1967C58.6058 19.0699 58.6113 16.9432 58.6196 14.8164C57.4659 14.8164 56.3121 14.8164 55.1584 14.8164C55.1529 16.9594 55.1501 19.1051 55.1446 21.2481C55.1418 22.7057 55.2495 24.3394 56.1189 25.5775C56.9525 26.7641 58.0069 27.5579 59.4725 27.8478C60.1184 27.9752 60.7725 28.005 61.4294 27.9833V27.986C61.4294 27.986 62.7819 27.9508 63.3919 27.8505C64.8658 27.6067 65.9119 26.7668 66.7455 25.5802C67.6177 24.3421 67.7254 22.7057 67.7198 21.2508C67.7198 19.1105 67.7171 16.9648 67.7116 14.8218Z" fill="white"/>
<path d="M177.908 8.08687C177.908 8.08687 171.976 6.89481 172.2 13.2209C172.202 13.2209 178.068 14.4509 177.908 8.08687Z" fill="#97C211"/>
</g>
<defs>
<clipPath id="clip0">
<rect width="214" height="37" fill="white"/>
</clipPath>
</defs>
</svg>
