<svg width="42" height="42" viewBox="0 0 42 42" fill="none" xmlns="http://www.w3.org/2000/svg">
<g id="Logo">
<path id="KS medallion logo" fill-rule="evenodd" clip-rule="evenodd" d="M38.7178 21.0153C38.7178 21.8825 36.8801 21.5847 36.6704 24.928C36.5142 27.4163 34.7017 29.2427 31.9077 30.0475C31.9322 29.6783 31.9474 29.2991 31.9474 28.9034C31.9474 25.7913 30.6401 22.99 28.5525 20.9999C30.6401 19.01 31.9474 16.2086 31.9474 13.0965C31.9474 12.7017 31.9323 12.3232 31.9079 11.9546C34.7017 12.7595 36.5142 14.586 36.6704 17.0742C36.8801 20.4175 38.7178 20.1198 38.7178 20.9869V21.0153ZM24.9317 36.6697C21.5889 36.8795 21.8866 38.7174 21.0196 38.7174H20.9912C20.1241 38.7174 20.4219 36.8795 17.079 36.6697C14.5908 36.5135 12.7646 34.7005 11.9599 31.9057C12.3262 31.9297 12.7025 31.9446 13.0948 31.9446C16.2079 31.9446 19.01 30.6358 20.9999 28.5461C22.99 30.6358 25.792 31.9446 28.9052 31.9446C29.3015 31.9446 29.6812 31.9292 30.0511 31.9046C29.2466 34.7001 27.4202 36.5135 24.9317 36.6697ZM5.32982 24.928C5.12001 21.5847 3.28231 21.8825 3.28231 21.0153V20.9869C3.28231 20.1197 5.12001 20.4175 5.32982 17.0742C5.48605 14.5826 7.30304 12.7546 10.1034 11.9513C10.0789 12.321 10.0636 12.7004 10.0636 13.0965C10.0636 16.2086 11.3709 19.0099 13.4585 20.9999C11.3709 22.9899 10.0636 25.7913 10.0636 28.9034C10.0636 29.3003 10.079 29.6806 10.1036 30.0509C7.30314 29.2476 5.48605 27.4196 5.32982 24.928ZM23.907 22.5045C23.9734 22.0172 24.0196 21.5237 24.0196 21.0184V20.9839C24.0196 20.4776 23.9732 19.9832 23.9066 19.4953C24.8865 19.8426 25.8065 20.3582 26.635 20.9999C25.8066 21.6416 24.8867 22.1572 23.907 22.5045ZM19.5014 23.91C19.9888 23.9765 20.4825 24.0228 20.9883 24.0228H21.0228C21.5245 24.0228 22.0144 23.9772 22.4981 23.9117C22.1515 24.8868 21.6384 25.8025 21 26.6276C20.3614 25.802 19.848 24.8858 19.5014 23.91ZM18.0929 19.4998C18.0267 19.9864 17.9805 20.4792 17.9805 20.9839V21.0184C17.9805 21.5222 18.0266 22.0142 18.0926 22.5C17.1172 22.1529 16.2011 21.639 15.376 20.9999C16.2012 20.3608 17.1174 19.8469 18.0929 19.4998ZM21.023 17.9771H20.9885C20.4831 17.9771 19.9896 18.0233 19.5024 18.0898C19.849 17.115 20.3622 16.1995 21.0002 15.3745C21.638 16.199 22.1508 17.1138 22.4974 18.0881C22.014 18.0227 21.5243 17.9771 21.023 17.9771ZM23.0129 20.9728V21.0011V21.0295C23.0129 21.6354 22.9434 22.2346 22.8157 22.8201C22.233 22.9465 21.6369 23.0159 21.0339 23.0159H21.0056H20.9772C20.3703 23.0159 19.7704 22.9462 19.1842 22.8181C19.0568 22.2333 18.9873 21.6349 18.9873 21.0295V21.0011V20.9728C18.9873 20.3665 19.0568 19.7672 19.1846 19.1816C19.7707 19.0536 20.3704 18.984 20.9772 18.984H21.0056H21.0339C21.6368 18.984 22.2327 19.0533 22.8153 19.1797C22.9433 19.766 23.0129 20.3658 23.0129 20.9728ZM11.5022 13.5397C11.5022 12.8719 11.551 12.2362 11.6364 11.6294C12.2404 11.5449 12.8734 11.4966 13.5379 11.4966C16.0393 11.4966 18.427 12.6496 20.1809 14.4271C19.3196 15.5714 18.6808 16.8876 18.3214 18.3187C16.8899 18.6785 15.5734 19.3182 14.4289 20.1805C12.6535 18.4267 11.5022 16.0399 11.5022 13.5397ZM11.5022 28.4602C11.5022 25.96 12.6535 23.5732 14.4289 21.8195C15.5732 22.6816 16.8895 23.3212 18.3208 23.6811C18.68 25.1131 19.3192 26.4301 20.1809 27.575C18.427 29.3526 16.0393 30.5055 13.5379 30.5055C12.8735 30.5055 12.2406 30.4573 11.6367 30.3727C11.5511 29.7654 11.5022 29.1289 11.5022 28.4602ZM30.5088 28.4602C30.5088 29.1282 30.46 29.7642 30.3745 30.3711C29.7673 30.4566 29.1308 30.5055 28.4623 30.5055C25.9608 30.5055 23.5731 29.3526 21.8193 27.575C22.6804 26.4309 23.3192 25.1149 23.6787 23.6841C25.1144 23.3248 26.4348 22.6839 27.5821 21.8195C29.3575 23.5732 30.5088 25.96 30.5088 28.4602ZM30.5088 13.5397C30.5088 16.0399 29.3575 18.4267 27.5821 20.1805C26.4346 19.3159 25.114 18.675 23.6781 18.3157C23.3185 16.8857 22.6799 15.5706 21.8193 14.4271C23.5731 12.6496 25.9608 11.4966 28.4623 11.4966C29.1309 11.4966 29.7675 11.5456 30.3749 11.6312C30.4601 12.2374 30.5088 12.8726 30.5088 13.5397ZM17.0793 5.33021C20.4222 5.1205 20.1244 3.28261 20.9915 3.28261H21.0199C21.8869 3.28261 21.5892 5.1205 24.932 5.33021C27.4212 5.48644 29.248 7.30081 30.0521 10.0975C29.682 10.0729 29.302 10.0574 28.9055 10.0574C25.7923 10.0574 22.9903 11.3663 21.0002 13.456C19.0103 11.3663 16.2082 10.0574 13.0951 10.0574C12.7026 10.0574 12.326 10.0724 11.9595 10.0965C12.7638 7.30042 14.5905 5.48644 17.0793 5.33021ZM39.283 16.3111C37.8368 13.3123 35.6145 11.0245 31.7045 10.3013C30.9822 6.38808 28.6944 4.16412 25.6948 2.71736C22.0221 0.945778 22.061 0 21.0054 0C19.9499 0 19.9888 0.945778 16.316 2.71736C13.317 4.16393 11.0293 6.3874 10.3067 10.2995C6.38993 11.0205 4.16451 13.3094 2.71707 16.3111C0.945778 19.9843 0 19.9453 0 21.0011C0 22.0567 0.945778 22.0179 2.71707 25.6911C4.16451 28.6928 6.39003 30.9817 10.3071 31.7026C11.0301 35.6135 13.3176 37.8363 16.316 39.2825C19.9888 41.0541 19.9499 42 21.0054 42C22.061 42 22.0221 41.0541 25.6948 39.2825C28.6938 37.8361 30.9814 35.6128 31.7041 31.7009C35.6143 30.9777 37.8368 28.69 39.283 25.6911C41.0543 22.0179 42 22.0567 42 21.0011C42 19.9453 41.0543 19.9843 39.283 16.3111Z" fill="#F1E02B"/>
</g>
</svg>
