<?xml version="1.0" encoding="utf-8"?>
<!-- Generator: Adobe Illustrator 25.4.1, SVG Export Plug-In . SVG Version: 6.00 Build 0)  -->
<svg version="1.1" id="Layer_1" xmlns="http://www.w3.org/2000/svg" xmlns:xlink="http://www.w3.org/1999/xlink" x="0px" y="0px" width="135" height="50"
	 viewBox="0 0 2681.08 1000.88" style="enable-background:new 0 0 2681.08 1000.88;" xml:space="preserve">
<style type="text/css">
	.st0{fill:#034C1F;}
</style>
<g>
	<g>
		<path class="st0" d="M192.6,500.5c0-173.46,139.1-307.28,311.36-307.28c174.18,0,305.6,136.46,305.6,300.79
			c0,68.95-21.86,133.34-59.58,185.71l104.27,117.96H723.07l-41.8-49.25c-50.45,36.52-112.92,58.14-182.35,58.14
			C329.06,806.58,192.6,672.28,192.6,500.5z M503.96,711.68c44.45,0,84.09-12.97,116.28-35.56l-61.98-73.04h123.73
			c14.41-29.55,22.34-63.67,22.34-101.15c0-123.25-86.25-210.46-202.29-210.46c-116.28,0-202.29,87.45-202.29,207.81
			C299.75,619.18,384.8,711.68,503.96,711.68z M886.44,345.06h98.5v270.28c0,64.39,30.75,104.27,89.37,104.27
			c58.62,0,98.02-39.88,98.02-104.27V345.06h98.5v452.63h-98.5v-52.86c-30.27,36.52-74.48,58.62-126.37,58.62
			c-90.57,0-150.64-64.63-158.56-156.64c-0.72-8.17-0.96-16.82-0.96-31.71V345.06z M1573.06,335.45
			c137.66,0,227.27,114.6,214.06,266.67h-341.87c6.49,67.99,66.55,117.24,140.06,117.24c46.37,0,86.97-19.46,123.97-59.82
			l62.46,65.83c-55.74,57.18-117.24,82.89-188.84,82.89c-141.27,0-237.61-99.94-237.61-234.96
			C1345.31,437.07,1443.57,335.45,1573.06,335.45z M1687.18,523.8c-11.29-62.47-56.94-99.94-116.28-99.94
			c-61.74,0-109.07,40.6-122.29,99.94H1687.18z M1896.44,659.54c35.56,39.64,80.48,62.47,124.93,62.47
			c41.08,0,67.99-20.66,67.99-50.45c0-24.02-17.78-42.52-53.82-52.13l-55.5-14.65c-81.68-21.62-124.69-65.83-124.69-128.29
			c0-77.12,65.35-140.54,160.49-140.54c63.18,0,120.36,27.63,161.21,71.59l-61.98,64.63c-27.87-29.79-63.19-47.81-100.42-47.81
			c-39.64,0-65.35,19.94-65.35,45.89c0,22.1,17.3,39.4,62.71,50.69l49.73,12.25c80.96,19.94,122.05,72.08,122.05,135.26
			c0,84.09-73.04,139.82-166.01,139.82c-67.51,0-131.42-29.55-183.79-82.89L1896.44,659.54z M2249.84,249.2h95.62v95.86h73.28
			l73.28,86.49h-146.55v190.27c0,61.99,26.91,90.34,85.53,90.34h20.18v86.49h-33.63c-109.31,0-167.69-63.18-167.69-177.06V249.2z"/>
	</g>
	<g>
		<path class="st0" d="M2521.15,335.14c-24.2,0-42.21-18.94-42.21-42.91c0-23.97,18.01-43.03,42.21-43.03
			c24.2,0,42.21,18.94,42.21,42.91C2563.36,316.08,2545.36,335.14,2521.15,335.14z M2521.15,256.68
			c-20.69,0-34.37,15.08-34.37,35.54c0,20.46,13.68,35.43,34.37,35.43c20.69,0,34.37-15.08,34.37-35.54
			C2555.53,271.65,2541.85,256.68,2521.15,256.68z M2530.62,313.86l-7.48-16.49h-8.77v16.49h-7.83v-44.78h16.49
			c8.53,0,15.9,4.91,15.9,14.03c0,5.84-2.57,10.52-8.07,12.98l8.3,17.77H2530.62z M2523.03,276.32h-8.77v13.8h8.77
			c4.68,0,7.72-2.1,7.72-7.01C2530.74,278.55,2527.23,276.32,2523.03,276.32z"/>
	</g>
</g>
</svg>
