<svg width="158" height="51" viewBox="0 0 158 51" fill="none" xmlns="http://www.w3.org/2000/svg">
<path d="M18.0312 22.0921C16.94 25.0919 14.7402 27.6636 11.4316 29.8073C8.52657 31.6984 5.38995 32.9018 2.02527 33.4211C1.90248 33.4351 1.80424 33.4421 1.73056 33.4421C1.39023 33.4421 1.01482 32.4036 0.604321 30.3266C0.193824 28.2495 0.0710255 26.983 0.235926 26.5233C0.295571 26.3619 0.442929 26.2567 0.681509 26.2111C3.00064 25.7234 4.57246 25.3094 5.38995 24.9691C7.20737 24.2007 8.38974 23.0639 8.93707 21.5553C9.28792 20.5939 9.17565 19.5238 8.60025 18.3415C7.58629 16.3311 7.04948 15.2154 6.97931 14.9943C6.5197 13.4576 6.62846 11.7595 7.30561 9.89643C8.2915 7.19136 10.358 4.9459 13.5052 3.15656C16.0839 1.67947 18.9364 0.71813 22.0695 0.272548C22.2379 0.262022 22.3642 0.255005 22.4519 0.255005C22.673 0.255005 22.7887 0.430431 22.7887 0.788301C22.7817 1.86542 22.9642 3.81616 23.3396 6.64052C23.3501 6.72824 23.3466 6.80191 23.3255 6.86156C23.2343 7.11417 23.0554 7.24048 22.7887 7.24048C22.6694 7.24048 22.48 7.21592 22.2133 7.17382C21.9502 7.12821 21.7432 7.10716 21.5958 7.10716C20.5327 7.10716 19.5118 7.35275 18.5364 7.84044C17.3716 8.4018 16.6067 9.1842 16.2418 10.1911C15.912 11.0928 16.0418 12.2015 16.6278 13.5172C17.6417 15.882 18.175 17.124 18.2206 17.2398C18.6802 18.8607 18.6171 20.4817 18.0312 22.0921Z" fill="white"></path>
<path d="M49.5904 8.41232C49.5307 8.57371 49.3518 8.65792 49.0571 8.65792C47.9484 8.65792 46.3029 8.56319 44.117 8.37022C41.9312 8.17725 40.2787 8.08252 39.156 8.08252C37.7385 8.08252 36.8895 8.13515 36.6158 8.23689C35.9773 8.48951 35.444 9.19823 35.0194 10.3631C34.5072 11.7665 34.5739 12.5664 35.2124 12.7559C35.4826 12.8296 35.9176 12.8646 36.5246 12.8646C37.5421 12.8646 39.0893 12.8085 41.1629 12.6997C43.2364 12.5875 44.7802 12.5348 45.8011 12.5348C46.2888 12.5348 46.0608 13.8365 45.1135 16.4363C44.289 18.6958 43.7311 20.0115 43.4329 20.3834C43.2329 20.6501 42.9838 20.7834 42.6891 20.7834C42.882 20.7834 42.433 20.7308 41.3488 20.629C39.8226 20.4816 37.4544 20.408 34.2476 20.408C33.2126 20.408 32.6266 20.415 32.4863 20.429C31.6898 20.5483 31.1987 20.8641 31.0092 21.3833C30.2443 23.4814 29.4549 25.8988 28.6374 28.632C27.8866 31.102 27.5603 32.2001 27.6586 31.937C27.5182 32.3194 26.9709 32.544 26.0201 32.6036C26.2762 32.5896 25.6201 32.579 24.0553 32.579C21.2906 32.579 19.5468 32.4843 18.8171 32.2913C18.4276 32.1896 18.2943 31.958 18.4241 31.6037C19.0206 29.9617 19.9749 27.4987 21.2801 24.2112C22.5887 20.9237 23.5395 18.4572 24.136 16.8187C24.8447 14.868 25.6517 12.4155 26.5499 9.45786C27.9463 4.89327 28.7006 2.4373 28.8094 2.09697L28.883 1.83033C29.0023 1.46193 29.29 1.27598 29.7496 1.27598C30.8443 1.27598 32.4863 1.30054 34.6791 1.34264C36.8719 1.38825 38.521 1.4093 39.6332 1.4093C40.8155 1.4093 42.6259 1.32159 45.0608 1.14266C47.4993 0.967229 49.3062 0.876007 50.4885 0.876007C51.2288 0.876007 51.5306 1.17774 51.3972 1.78472C51.1657 2.41976 50.8499 3.37408 50.4464 4.64416C50.3587 4.97046 50.2254 5.59848 50.05 6.52824C49.9061 7.34222 49.7517 7.97025 49.5904 8.41232Z" fill="white"></path>
<path d="M73.5039 12.1384C73.1039 13.233 72.4584 14.8715 71.5567 17.0608C70.6585 19.2502 70.0094 20.8886 69.6094 21.9833C69.22 23.0464 68.6797 24.6428 67.978 26.7724C67.2763 28.8986 66.736 30.488 66.3535 31.537C66.2097 31.937 65.9325 32.1861 65.5255 32.2913C64.908 32.4387 63.6941 32.5124 61.8766 32.5124C60.2662 32.5124 59.1575 32.4668 58.5541 32.3791C58.2909 32.3334 58.1751 32.158 58.2173 31.8458C58.333 31.4002 58.4523 30.9581 58.5681 30.516C58.74 29.8354 58.7611 29.4951 58.6277 29.4951C58.8347 29.4951 57.905 29.9968 55.8385 31.0037C53.7755 32.0107 52.0458 32.5124 50.6564 32.5124C46.7409 32.5124 45.0603 30.7476 45.6252 27.2145C45.8953 25.576 46.6005 23.1937 47.7373 20.0782C48.9618 16.71 50.2038 14.047 51.4598 12.0998C51.8423 11.4928 52.2563 11.1911 52.7018 11.1911C53.379 11.1911 54.414 11.1981 55.7964 11.2121C57.1787 11.2262 58.2137 11.2332 58.8909 11.2332C59.3505 11.2332 59.5084 11.4261 59.368 11.8086C59.3295 11.9138 59.2593 12.0682 59.154 12.2752C58.112 14.2856 57.2138 16.324 56.4595 18.3941C55.5227 20.9658 54.9648 22.7236 54.7824 23.6709C54.4561 25.2953 55.1297 26.1093 56.7998 26.1093C57.4524 26.1093 58.2594 25.8216 59.2312 25.2462C60.2031 24.6708 60.8136 24.0709 61.0697 23.4499C61.2977 22.9025 62.6626 19.194 65.1641 12.3208C65.3431 11.8331 65.4834 11.5454 65.5887 11.4577C65.7325 11.3104 66.0237 11.2367 66.4693 11.2367C67.1921 11.2367 68.2797 11.2437 69.7287 11.2612C71.1813 11.2753 72.2654 11.2823 72.9917 11.2823C73.4337 11.2823 73.6513 11.3946 73.6477 11.6156C73.6407 11.7244 73.5916 11.8998 73.5039 12.1384Z" fill="white"></path>
<path d="M94.5169 20.2501C93.9731 21.7447 93.1836 22.5938 92.1486 22.8008C91.9732 22.8289 90.3873 22.9938 87.384 23.2885C85.5701 23.4814 82.8861 23.7095 79.3285 23.9761C79.1846 24.9375 79.546 25.6673 80.4126 26.169C81.1178 26.583 82.0195 26.79 83.1107 26.79C84.4264 26.79 85.8789 26.4356 87.4647 25.7269C88.1559 25.3725 88.8471 25.0182 89.5383 24.6638C89.7944 24.8112 90.04 25.5655 90.2786 26.9233C90.5172 28.2846 90.5663 29.1477 90.433 29.5161C90.3944 29.6214 90.2224 29.7898 89.9137 30.0248C87.4051 31.9616 84.2544 32.9299 80.4547 32.9299C76.9357 32.9299 74.4727 31.9019 73.0622 29.8494C71.6027 27.7654 71.508 24.9796 72.7781 21.4921C74.0166 18.0923 76.0199 15.3066 78.7917 13.1348C81.6476 10.8893 84.7632 9.76662 88.1314 9.76662C90.9698 9.76662 93.0012 10.8016 94.2292 12.8717C95.4572 14.9382 95.5554 17.3977 94.5169 20.2501ZM87.2472 18.8993C87.5805 17.9836 87.5489 17.1766 87.149 16.4819C86.7525 15.7872 86.1034 15.4399 85.2017 15.4399C84.272 15.4399 83.3598 15.8329 82.4686 16.6153C81.6441 17.338 81.0547 18.1906 80.7003 19.1624C80.5529 19.5624 80.6898 19.7589 81.1038 19.7589C82.1984 19.7589 83.9597 19.5905 86.3876 19.2502C86.9034 19.18 87.1876 19.0607 87.2472 18.8993Z" fill="white"></path>
<path d="M105.498 18.9414C104.032 22.9762 102.919 26.0707 102.162 28.2285C102.039 28.5688 101.849 29.1512 101.593 29.9792C101.365 30.7336 101.172 31.316 101.021 31.73C100.909 32.0422 100.656 32.2247 100.264 32.2843C99.5548 32.4036 98.3374 32.4633 96.6076 32.4633C94.8358 32.4633 93.7236 32.4036 93.2816 32.2843C92.9833 32.2107 92.8711 32.0107 92.9447 31.6844C92.9623 31.6388 93.0746 31.323 93.2921 30.7301C93.7692 29.4144 94.5025 27.4461 95.4849 24.8217C96.4708 22.1973 97.1971 20.2361 97.6707 18.9379C99.9302 12.7313 100.969 9.89993 100.783 10.4473C101.927 7.18083 102.765 4.36699 103.302 2.00224C103.33 1.84085 103.362 1.71454 103.393 1.62683C103.512 1.30054 103.762 1.13914 104.147 1.13914H112.063C112.431 1.13914 112.547 1.29352 112.403 1.60578L112.235 2.00575C109.533 8.39127 107.284 14.0365 105.498 18.9414Z" fill="white"></path>
<path d="M124.195 14.3558C124.143 14.5031 123.957 14.7031 123.644 14.9522C123.269 14.8505 122.872 14.7978 122.458 14.7978C121.588 14.7978 120.785 14.9908 120.055 15.3732C119.185 15.8153 118.603 16.4468 118.304 17.2573C118.115 17.7766 118.255 18.4327 118.715 19.2291C119.417 20.4255 119.827 21.2325 119.943 21.6465C120.287 22.7692 120.227 23.9761 119.76 25.2603C119.487 26.0146 119.048 26.811 118.445 27.6531C117.764 28.5828 117.09 29.2635 116.417 29.6915C114.978 30.6388 113.41 31.4353 111.712 32.0843C109.884 32.765 108.305 33.1053 106.975 33.1053C106.677 33.1053 106.309 32.3019 105.867 30.702C105.425 29.0986 105.267 28.1197 105.397 27.7653C105.446 27.632 105.554 27.5513 105.73 27.5197C106.835 27.3268 107.944 27.1373 109.066 26.9443C110.519 26.5303 111.417 25.8497 111.761 24.9059C111.996 24.2568 111.894 23.5025 111.452 22.6464C110.652 21.1518 110.238 20.3624 110.21 20.2746C109.842 19.2116 109.877 18.0888 110.305 16.9065C111.112 14.6891 112.922 12.805 115.733 11.2542C118.241 9.87888 120.645 9.19121 122.936 9.19121C123.171 9.19121 123.465 9.98413 123.82 11.5735C124.164 13.1594 124.29 14.0891 124.195 14.3558Z" fill="white"></path>
<path d="M132.314 27.432C131.781 28.8951 130.819 30.1441 129.43 31.1791C128.041 32.2142 126.623 32.7299 125.174 32.7299C123.725 32.7299 122.69 32.2106 122.062 31.1686C121.438 30.1266 121.388 28.8811 121.915 27.432C122.441 25.983 123.395 24.741 124.778 23.706C126.16 22.671 127.574 22.1552 129.023 22.1552C130.472 22.1552 131.514 22.6745 132.149 23.706C132.788 24.7445 132.84 25.9865 132.314 27.432Z" fill="white"></path>
<path d="M130.826 4.64416C130.826 4.65468 130.816 4.6617 130.795 4.6617C130.77 4.6617 130.732 4.65819 130.679 4.65468C130.626 4.65117 130.588 4.64766 130.56 4.64766C130.532 4.64766 130.489 4.65117 130.433 4.65468C130.377 4.65819 130.335 4.6617 130.307 4.6617C130.275 4.6617 130.251 4.64416 130.237 4.61258C130.195 4.52136 130.072 4.23717 129.872 3.76352C129.851 3.7144 129.802 3.68633 129.725 3.6758C129.707 3.6758 129.647 3.67229 129.542 3.67229C129.356 3.67229 129.247 3.6758 129.212 3.67931C129.184 3.68282 129.17 3.71791 129.17 3.78106C129.17 3.87579 129.174 4.01613 129.184 4.20208C129.195 4.38803 129.198 4.52837 129.198 4.6231C129.198 4.65117 129.184 4.66521 129.16 4.66521C129.132 4.66521 129.093 4.6617 129.037 4.65468C128.984 4.64766 128.942 4.64416 128.914 4.64416C128.893 4.64416 128.858 4.64766 128.809 4.65117C128.763 4.65468 128.728 4.65819 128.704 4.65819C128.672 4.65819 128.654 4.64416 128.654 4.61258C128.654 4.46171 128.662 4.24068 128.676 3.93894C128.69 3.64072 128.697 3.41617 128.697 3.26531C128.697 2.84077 128.683 2.38817 128.651 1.90751L128.647 1.87593C128.647 1.84786 128.676 1.83734 128.732 1.83734C128.847 1.83734 129.019 1.83383 129.251 1.82681C129.482 1.81979 129.654 1.81628 129.767 1.81628C130.065 1.81628 130.303 1.88645 130.482 2.0303C130.682 2.18819 130.781 2.40923 130.781 2.70043C130.781 2.90042 130.753 3.05479 130.7 3.17058C130.644 3.28987 130.539 3.40565 130.384 3.51441C130.36 3.53195 130.346 3.5495 130.346 3.56353C130.346 3.58107 130.426 3.76001 130.588 4.10033C130.749 4.44066 130.826 4.6231 130.826 4.64416ZM130.275 2.81972C130.275 2.57763 130.205 2.41273 130.065 2.33204C129.96 2.27239 129.774 2.24082 129.507 2.24082C129.29 2.24082 129.177 2.25836 129.174 2.29344C129.163 2.36712 129.16 2.56009 129.16 2.87586V3.2618C129.163 3.26531 129.174 3.26531 129.188 3.26881C129.212 3.27232 129.251 3.27583 129.307 3.27934C129.433 3.28636 129.574 3.28986 129.721 3.28986C130.089 3.28636 130.275 3.13198 130.275 2.81972Z" fill="white"></path>
<path d="M129.666 6.35282C127.995 6.35282 126.638 4.99853 126.638 3.33198C126.638 1.66543 127.995 0.311142 129.666 0.311142C131.336 0.311142 132.693 1.66543 132.693 3.33198C132.693 4.99853 131.336 6.35282 129.666 6.35282ZM129.666 0.725148C128.224 0.725148 127.048 1.897 127.048 3.33198C127.048 4.76697 128.224 5.93882 129.666 5.93882C131.108 5.93882 132.283 4.76697 132.283 3.33198C132.283 1.897 131.108 0.725148 129.666 0.725148Z" fill="white"></path>
<path d="M98.3382 48.1464C98.3101 48.2692 98.2259 48.3323 98.0891 48.3323C98.0014 48.3323 97.7698 48.2832 97.3839 48.1815C97.0014 48.0832 96.7664 48.0131 96.6822 47.9745C95.6121 48.3499 94.6402 48.5358 93.7631 48.5358C92.3526 48.5358 91.3352 48.0657 90.7212 47.1254C90.1107 46.1991 90.0195 45.0273 90.451 43.6099C90.8931 42.1608 91.6966 40.9609 92.8544 40.0066C94.0508 39.0207 95.363 38.526 96.7944 38.526C97.4891 38.526 98.1031 38.6593 98.6329 38.9225C99.2048 39.2137 99.6013 39.6242 99.8188 40.1575C99.8644 40.2662 99.8784 40.3434 99.8644 40.389C99.8188 40.5364 99.5171 40.8627 98.9522 41.3714C98.3873 41.8802 98.047 42.1363 97.9277 42.1363C97.8996 42.1363 97.8259 42.0415 97.6996 41.8556C97.5418 41.631 97.3698 41.4591 97.1734 41.3363C96.8822 41.1504 96.5278 41.0556 96.1068 41.0556C95.4226 41.0556 94.7981 41.3118 94.2402 41.824C93.721 42.2942 93.3561 42.8801 93.1386 43.5853C92.9105 44.3291 92.9245 44.9185 93.1807 45.3536C93.4473 45.8027 93.9455 46.0237 94.6823 46.0237C95.1489 46.0237 95.7068 45.9079 96.3524 45.6764C96.3839 45.5255 96.4611 45.1431 96.5804 44.5256C96.6681 44.0484 96.7523 43.666 96.8436 43.3748C96.8716 43.2871 96.9172 43.2344 96.9804 43.2169C97.005 43.2064 97.0435 43.2029 97.0927 43.2029C97.226 43.2029 97.4225 43.2169 97.6821 43.2415C97.9417 43.266 98.1417 43.2801 98.2785 43.2801C98.4224 43.2801 98.6469 43.2695 98.9452 43.2485C99.2434 43.2274 99.4679 43.2169 99.6118 43.2169C99.7276 43.2169 99.7591 43.2941 99.7135 43.4414C99.6469 43.6625 99.5346 43.9923 99.3732 44.4344C99.2118 44.8764 99.0995 45.2097 99.0329 45.4273C98.8539 46.0167 98.6259 46.8973 98.3557 48.0727L98.3382 48.1464Z" fill="white"></path>
<path d="M106.804 44.9922C106.485 46.0343 105.91 46.8798 105.075 47.5289C104.24 48.178 103.303 48.5007 102.264 48.5007C101.261 48.5007 100.531 48.1815 100.079 47.5394C99.6259 46.9009 99.5523 46.0764 99.861 45.0729C100.184 44.0133 100.759 43.1538 101.584 42.4941C102.408 41.8345 103.348 41.5047 104.408 41.5047C105.44 41.5047 106.176 41.8275 106.618 42.4731C107.057 43.1222 107.12 43.9607 106.804 44.9922ZM104.555 44.9922C104.664 44.6308 104.654 44.3116 104.513 44.0379C104.373 43.7607 104.124 43.6239 103.77 43.6239C103.408 43.6239 103.068 43.7642 102.749 44.0484C102.447 44.3151 102.243 44.6273 102.131 44.9957C102.019 45.3676 102.033 45.6834 102.17 45.9465C102.317 46.2307 102.57 46.3711 102.931 46.3711C103.289 46.3711 103.626 46.2307 103.945 45.9465C104.24 45.6799 104.443 45.3641 104.555 44.9922Z" fill="white"></path>
<path d="M116.418 48.4797C116.025 48.4797 115.516 48.4692 114.892 48.4516C114.074 48.4341 113.569 48.42 113.369 48.4165L111.327 48.3885C111.12 48.392 110.829 48.385 110.45 48.3604C110.324 48.3358 110.281 48.2657 110.317 48.1464C110.467 47.6482 110.706 46.9044 111.025 45.9079C111.345 44.915 111.58 44.1677 111.731 43.6695C111.892 43.1397 112.12 42.3468 112.411 41.2907C112.702 40.2311 112.93 39.4382 113.092 38.9084C113.123 38.8102 113.208 38.7576 113.344 38.7576C113.481 38.7576 113.685 38.7646 113.951 38.7786C114.218 38.7927 114.418 38.7997 114.551 38.7997C114.702 38.7997 114.93 38.7927 115.229 38.7751C115.53 38.7576 115.755 38.7505 115.906 38.7505C115.976 38.7505 115.993 38.7962 115.962 38.8804L115.927 38.9681C115.607 39.8277 115.151 41.1188 114.558 42.8415L114.001 44.6484C113.822 45.2343 113.692 45.6588 113.615 45.929C113.604 45.9851 113.59 46.0378 113.576 46.0939C113.565 46.15 113.59 46.1816 113.65 46.1956C113.653 46.1956 113.713 46.1956 113.829 46.1956C114.239 46.1956 114.864 46.1746 115.695 46.1325C116.53 46.0869 117.151 46.0658 117.562 46.0658C117.684 46.0658 117.73 46.1185 117.699 46.2237C117.46 47.0061 117.197 47.6797 116.909 48.2446C116.849 48.3639 116.779 48.4341 116.702 48.4551C116.681 48.4762 116.583 48.4797 116.418 48.4797Z" fill="white"></path>
<path d="M125.406 44.9922C125.087 46.0343 124.511 46.8798 123.676 47.5289C122.841 48.178 121.904 48.5007 120.866 48.5007C119.862 48.5007 119.133 48.1815 118.68 47.5394C118.227 46.9009 118.154 46.0764 118.463 45.0729C118.785 44.0133 119.361 43.1538 120.185 42.4941C121.01 41.8345 121.95 41.5047 123.01 41.5047C124.041 41.5047 124.778 41.8275 125.22 42.4731C125.659 43.1222 125.722 43.9607 125.406 44.9922ZM123.157 44.9922C123.266 44.6308 123.255 44.3116 123.115 44.0379C122.975 43.7607 122.725 43.6239 122.371 43.6239C122.01 43.6239 121.669 43.7642 121.35 44.0484C121.048 44.3151 120.845 44.6273 120.733 44.9957C120.62 45.3676 120.634 45.6834 120.771 45.9465C120.919 46.2307 121.171 46.3711 121.533 46.3711C121.89 46.3711 122.227 46.2307 122.547 45.9465C122.841 45.6799 123.045 45.3641 123.157 44.9922Z" fill="white"></path>
<path d="M132.076 48.1674C132.037 48.2902 131.953 48.3604 131.82 48.3815C131.687 48.399 131.35 48.4095 130.813 48.4095C130.238 48.4095 129.887 48.3955 129.757 48.3674C129.627 48.3394 129.588 48.2481 129.638 48.0867C129.704 47.8727 129.809 47.5464 129.957 47.1149C130.104 46.6833 130.209 46.3535 130.276 46.136C130.329 45.9676 130.402 45.715 130.494 45.3782C130.588 45.0413 130.659 44.7887 130.711 44.6203C130.904 43.9958 130.725 43.68 130.185 43.68C130.006 43.68 129.774 43.7572 129.49 43.9151C129.181 44.0905 129.003 44.2589 128.95 44.4273L127.82 48.1288C127.775 48.2797 127.676 48.3639 127.532 48.3815C127.368 48.399 127.038 48.4095 126.543 48.4095C126.01 48.4095 125.666 48.3955 125.515 48.3674C125.382 48.3429 125.333 48.2692 125.371 48.1429C125.48 47.785 125.645 47.2482 125.869 46.5325C126.094 45.8167 126.262 45.2764 126.371 44.915C126.718 43.7783 126.904 42.8836 126.922 42.238C126.925 42.1959 126.932 42.1608 126.939 42.1363C126.961 42.0626 127.013 42.0135 127.09 41.9854C127.389 41.9538 127.789 41.9047 128.287 41.8345C129.055 41.6942 129.487 41.624 129.578 41.624C129.631 41.624 129.62 41.7784 129.553 42.0872C129.487 42.3959 129.476 42.5503 129.529 42.5503C129.48 42.5503 129.774 42.3924 130.413 42.0731C131.051 41.7538 131.574 41.596 131.981 41.596C132.56 41.596 133.002 41.7328 133.307 42.0065C133.644 42.3222 133.728 42.7608 133.557 43.3222L132.89 45.508C132.799 45.8062 132.665 46.2483 132.49 46.8412C132.301 47.4236 132.167 47.8692 132.076 48.1674Z" fill="white"></path>
<path d="M140.532 46.5816C140.132 47.8832 139.574 48.8165 138.851 49.3849C138.108 49.9638 137.076 50.255 135.76 50.255C135.378 50.255 134.873 50.1919 134.248 50.0691C133.452 49.9147 133.083 49.7322 133.147 49.5217C133.171 49.434 133.406 48.9884 133.852 48.178C133.922 48.0517 133.992 47.985 134.062 47.985C134.083 47.9885 134.104 47.999 134.129 48.0131C134.725 48.3604 135.325 48.5323 135.922 48.5323C136.252 48.5323 136.602 48.4516 136.978 48.2867C137.43 48.0902 137.701 47.8446 137.792 47.5464L137.932 47.0868C137.332 47.5254 136.669 47.7429 135.936 47.7429C135.076 47.7429 134.466 47.4342 134.101 46.8167C133.747 46.2237 133.704 45.4939 133.968 44.6238C134.234 43.7502 134.711 43.0274 135.399 42.452C136.115 41.8556 136.908 41.5539 137.771 41.5539C138.462 41.5539 138.915 41.7995 139.129 42.2942C139.171 42.3924 139.206 42.445 139.234 42.445C139.276 42.445 139.322 42.3643 139.371 42.1994C139.483 41.8345 139.581 41.6521 139.662 41.6521C139.736 41.6521 140.118 41.6907 140.813 41.7644C141.507 41.8381 141.865 41.8837 141.89 41.8907C141.96 41.9187 141.981 41.9784 141.953 42.0696C141.855 42.3854 141.7 42.8555 141.49 43.48C141.279 44.1046 141.121 44.5782 141.027 44.8905C140.967 45.0799 140.886 45.3606 140.778 45.7325C140.672 46.1149 140.588 46.3956 140.532 46.5816ZM138.739 44.687C138.841 44.3537 138.82 44.066 138.673 43.8204C138.525 43.5748 138.287 43.452 137.953 43.452C137.62 43.452 137.304 43.5783 137.006 43.8239C136.708 44.073 136.508 44.3642 136.406 44.6975C136.304 45.0308 136.329 45.3185 136.48 45.5606C136.634 45.8027 136.869 45.9255 137.195 45.9255C137.529 45.9255 137.844 45.8027 138.143 45.5571C138.437 45.308 138.637 45.0203 138.739 44.687Z" fill="white"></path>
<path d="M148.584 44.6449C148.443 45.1045 148.215 45.3676 147.896 45.4343C147.844 45.4448 147.356 45.4939 146.433 45.5851C145.875 45.6448 145.051 45.715 143.956 45.7992C143.932 46.0974 144.054 46.3219 144.332 46.4763C144.556 46.6026 144.84 46.6693 145.177 46.6693C145.584 46.6693 146.026 46.5605 146.503 46.3395C146.71 46.2307 146.917 46.122 147.124 46.0097C147.205 46.0553 147.296 46.2869 147.394 46.7079C147.493 47.1289 147.524 47.3955 147.486 47.5078C147.475 47.5394 147.426 47.592 147.335 47.6657C146.595 48.2657 145.637 48.5639 144.461 48.5639C143.374 48.5639 142.595 48.2446 142.121 47.6096C141.633 46.9675 141.553 46.1044 141.883 45.0273C142.202 43.9782 142.774 43.1151 143.591 42.445C144.433 41.7503 145.377 41.403 146.419 41.403C147.296 41.403 147.942 41.7223 148.359 42.3643C148.78 43.0029 148.854 43.7642 148.584 44.6449ZM146.314 44.2273C146.402 43.9432 146.377 43.6941 146.24 43.48C146.103 43.266 145.9 43.1572 145.619 43.1572C145.331 43.1572 145.058 43.2765 144.795 43.5186C144.553 43.7432 144.384 44.0063 144.293 44.308C144.254 44.4308 144.3 44.494 144.43 44.494C144.767 44.494 145.31 44.4414 146.054 44.3361C146.212 44.3116 146.296 44.2765 146.314 44.2273Z" fill="white"></path>
<path d="M154.05 44.0975C153.994 44.2765 153.871 44.3642 153.671 44.3642C153.587 44.3642 153.46 44.3607 153.295 44.3466C153.131 44.3361 153.008 44.3291 152.927 44.3291C152.548 44.3291 152.271 44.3888 152.099 44.508C151.927 44.6273 151.783 44.8659 151.674 45.2273C151.615 45.4238 151.527 45.722 151.411 46.122C151.296 46.5219 151.208 46.8202 151.148 47.0166C151.11 47.15 151.057 47.3464 150.994 47.6096C150.931 47.8727 150.882 48.0692 150.843 48.1955C150.808 48.3043 150.717 48.3674 150.559 48.3815C150.334 48.399 149.994 48.4095 149.545 48.4095C149.11 48.4095 148.769 48.3955 148.517 48.3674C148.373 48.3499 148.32 48.2727 148.359 48.1429C148.471 47.778 148.64 47.2307 148.868 46.5009C149.096 45.7711 149.264 45.2238 149.376 44.8589C149.706 43.7853 149.878 42.9011 149.892 42.2064C149.896 42.1643 149.903 42.1328 149.91 42.1047C149.931 42.0345 149.98 41.9889 150.054 41.9679C150.313 41.9398 150.696 41.8907 151.201 41.817C151.966 41.6767 152.362 41.603 152.383 41.603C152.464 41.603 152.474 41.7468 152.408 42.0345C152.345 42.3222 152.341 42.4661 152.397 42.4661C152.334 42.4661 152.559 42.3468 153.071 42.1047C153.583 41.8661 154.043 41.7468 154.45 41.7468C154.706 41.7468 154.818 41.803 154.783 41.9117C154.744 42.0451 154.671 42.231 154.569 42.4731C154.46 42.7327 154.39 42.9222 154.348 43.0345C154.309 43.1678 154.257 43.3432 154.194 43.5607C154.123 43.8309 154.074 44.0098 154.05 44.0975Z" fill="white"></path>
<path d="M156.997 46.8623C156.86 47.3149 156.583 47.7008 156.173 48.0201C155.762 48.3393 155.334 48.5007 154.885 48.5007C154.436 48.5007 154.11 48.3393 153.896 48.0166C153.685 47.6938 153.647 47.3113 153.783 46.8623C153.92 46.4167 154.194 46.0307 154.601 45.7115C155.011 45.3922 155.436 45.2308 155.885 45.2308C156.334 45.2308 156.664 45.3922 156.881 45.7115C157.095 46.0342 157.134 46.4167 156.997 46.8623Z" fill="white"></path>
</svg>
