<svg width="126" height="25" viewBox="0 0 126 25" fill="none" xmlns="http://www.w3.org/2000/svg">
<g clip-path="url(#clip0_2340_420)">
<path d="M123.654 1.74101V1.1754H124.186C124.379 1.1754 124.492 1.25621 124.492 1.45821C124.492 1.66021 124.379 1.74101 124.186 1.74101H123.654ZM123.654 2.81567V1.99958H124.049L124.525 2.81567H124.863L124.388 1.96726C124.67 1.94302 124.807 1.74102 124.807 1.45821C124.807 1.15116 124.613 0.924915 124.186 0.924915H123.339V2.81567H123.654ZM122.42 1.9107C122.42 2.70255 122.985 3.51865 124.057 3.51865C125.129 3.51865 125.686 2.70255 125.686 1.9107C125.686 1.11884 125.121 0.270424 124.057 0.270424C122.993 0.270424 122.42 1.08652 122.42 1.9107ZM124.057 3.82569C122.759 3.82569 122.114 2.86415 122.114 1.9107C122.114 0.957237 122.759 -0.0366211 124.057 -0.0366211C125.355 -0.0366211 126 0.924916 126 1.9107C126 2.89647 125.355 3.82569 124.057 3.82569ZM114.882 13.1098C114.882 9.72421 116.599 8.28594 118.905 8.28594C121.695 8.28594 123.13 10.2898 123.13 13.1098C123.13 15.9298 121.695 17.9336 118.905 17.9336C116.599 17.9336 114.882 16.4954 114.882 13.1098ZM112.205 24.9634H114.882V18.3296C115.841 19.7436 117.357 20.4466 119.445 20.4466C123.501 20.4466 125.976 17.2307 125.976 13.1098C125.976 8.98891 123.501 5.77301 119.445 5.77301C117.333 5.77301 115.817 6.50831 114.858 7.94657L114.833 6.05582H112.213V24.9634H112.205ZM98.5796 13.1098C98.5796 10.5161 100.047 8.31018 102.917 8.31018C105.787 8.31018 107.255 10.508 107.255 13.1098C107.255 15.7116 105.787 17.9094 102.917 17.9094C100.047 17.9094 98.5796 15.7116 98.5796 13.1098ZM102.917 20.4466C107.593 20.4466 110.101 17.0044 110.101 13.1098C110.101 9.21516 107.593 5.77301 102.917 5.77301C98.241 5.77301 95.7416 9.21516 95.7416 13.1098C95.7416 17.0044 98.249 20.4466 102.917 20.4466ZM90.9525 20.1638V13.2229C90.9767 9.10203 93.9356 8.51218 95.7094 8.47986V5.82957C93.4277 5.65989 91.7426 6.98504 90.9203 8.47986L90.888 6.05582H88.2677V20.1638H90.9525ZM72.9571 13.1098C72.9571 10.2898 74.3922 8.28594 77.1819 8.28594C79.4877 8.28594 81.205 9.72421 81.205 13.1098C81.205 16.4954 79.4877 17.9336 77.1819 17.9336C74.3922 17.9336 72.9571 15.9298 72.9571 13.1098ZM76.6417 20.4466C78.7782 20.4466 80.3262 19.687 81.2856 18.1922C81.5678 19.687 82.6966 20.3658 84.3252 20.3658C85.0266 20.3658 85.7361 20.2526 86.4053 20.0022V17.8609C86.0102 17.974 85.591 18.0306 85.2765 18.0306C83.8979 18.0306 83.8656 17.4408 83.8656 16.5035V0.423948H81.1889V7.89809C80.2295 6.48406 78.7137 5.78109 76.6255 5.78109C72.5701 5.78109 70.095 8.99699 70.095 13.1179C70.095 17.2387 72.5701 20.4547 76.6255 20.4547L76.6417 20.4466ZM62.6372 20.1718H65.3139V13.231C65.3381 9.11012 68.297 8.52026 70.0708 8.48794V5.83765C67.7891 5.66797 66.104 6.99311 65.2817 8.48794L65.2575 6.06389H62.6372V20.1718ZM49.2938 11.9301C49.6889 9.58685 51.2046 8.17282 53.5186 8.17282C55.5987 8.17282 57.0902 9.32828 57.2595 11.9301H49.2938ZM58.7269 19.1537V16.5843C57.0902 17.4892 55.5987 17.8852 54.1635 17.8852C51.1482 17.8852 49.5438 16.5035 49.2616 14.0471H60.0975C60.1217 13.7077 60.154 13.3684 60.154 12.9724C60.154 8.0597 57.2837 5.78109 53.7362 5.78109C49.06 5.78109 46.5042 9.22324 46.5042 13.1744C46.5042 17.6912 49.4067 20.4547 53.8814 20.4547C55.0907 20.4547 57.0338 20.2607 58.7269 19.1537ZM43.1825 20.4547C44.279 20.4547 45.0933 20.3092 45.9721 20.0022V17.7155C45.2142 17.9094 44.4483 17.966 43.8033 17.966C42.3682 17.966 41.6668 17.5458 41.6668 15.8813V8.40714H45.5529V6.06389H41.6668V1.88645H38.99V6.06389H36.7406V8.40714H38.99V16.253C38.99 19.0487 40.2316 20.4547 43.1825 20.4547ZM25.3645 15.9136C25.3645 14.2733 26.4932 13.5138 28.4363 13.5138H32.0966C31.9515 16.5923 30.3229 18.168 28.017 18.168C26.2191 18.168 25.3725 17.2064 25.3725 15.9136H25.3645ZM37.313 20.0022V17.8609C36.918 17.974 36.4987 18.0306 36.1843 18.0306C34.8056 18.0306 34.7734 17.4408 34.7734 16.5035V11.4776C34.7734 8.28594 33.4511 5.78109 29.1458 5.78109C27.1463 5.78109 25.4612 6.29014 23.9939 6.99311V9.53028C25.687 8.71419 27.5171 8.28594 28.8958 8.28594C31.5161 8.28594 32.0482 9.83733 32.1047 11.5584H28.2508C24.8404 11.5584 22.6232 13.1421 22.6232 16.0752C22.6232 19.0083 24.6227 20.4789 27.4365 20.4789C29.3473 20.4789 31.0646 19.9133 32.1934 18.2245C32.4997 19.6951 33.6043 20.3658 35.2329 20.3658C35.9343 20.3658 36.6438 20.2526 37.313 20.0022ZM5.55503 20.4547C7.49808 20.4547 9.27182 19.5254 10.199 17.6589C11.1584 19.5254 12.9322 20.4547 14.8752 20.4547C18.8984 20.4547 20.4222 17.772 20.4222 14.8713V6.07198H17.7455V14.7339C17.7455 16.9075 16.5925 17.9821 14.6495 17.9821C12.7064 17.9821 11.5535 16.9075 11.5535 14.7339V6.07198H8.87676V14.7339C8.87676 16.9075 7.72383 17.9821 5.78078 17.9821C3.83773 17.9821 2.6848 16.9075 2.6848 14.7339V6.07198H0V14.8713C0 17.7801 1.5238 20.4547 5.54697 20.4547" fill="black"/>
</g>
<defs>
<clipPath id="clip0_2340_420">
<rect width="126" height="25" fill="white"/>
</clipPath>
</defs>
</svg>
